{
    "accessors" : [
        {
            "bufferView" : 0,
            "componentType" : 5123,
            "count" : 2880,
            "max" : [
                595
            ],
            "min" : [
                0
            ],
            "type" : "SCALAR"
        },
        {
            "bufferView" : 1,
            "componentType" : 5126,
            "count" : 596,
            "max" : [
                1.2476072311401367,
                1.0732730627059937,
                1.3608661890029907
            ],
            "min" : [
                -1.244496464729309,
                -1.1148123741149902,
                -1.1292213201522827
            ],
            "type" : "VEC3"
        },
        {
            "bufferView" : 2,
            "componentType" : 5126,
            "count" : 596,
            "max" : [
                0.999755859375,
                0.999114990234375,
                0.9978026747703552
            ],
            "min" : [
                -0.999786376953125,
                -0.9998779296875,
                -0.9990233778953552
            ],
            "type" : "VEC3"
        },
        {
            "bufferView" : 3,
            "componentType" : 5126,
            "count" : 596,
            "max" : [
                0.8425952792167664,
                0.9999684691429138,
                0.9999974370002747,
                1.0
            ],
            "min" : [
                -0.9999996423721313,
                -0.9767725467681885,
                -0.7984040975570679,
                1.0
            ],
            "type" : "VEC4"
        },
        {
            "bufferView" : 4,
            "componentType" : 5126,
            "count" : 596,
            "max" : [
                2.110560417175293,
                2.1105602979660034
            ],
            "min" : [
                -1.1105602979660034,
                -1.110560417175293
            ],
            "type" : "VEC2"
        }
    ],
    "asset" : {
        "generator" : "Khronos Blender glTF 2.0 exporter",
        "version" : "2.0"
    },
    "bufferViews" : [
        {
            "buffer" : 0,
            "byteLength" : 5760,
            "byteOffset" : 0,
            "target" : 34963
        },
        {
            "buffer" : 0,
            "byteLength" : 7152,
            "byteOffset" : 5760,
            "target" : 34962
        },
        {
            "buffer" : 0,
            "byteLength" : 7152,
            "byteOffset" : 12912,
            "target" : 34962
        },
        {
            "buffer" : 0,
            "byteLength" : 9536,
            "byteOffset" : 20064,
            "target" : 34962
        },
        {
            "buffer" : 0,
            "byteLength" : 4768,
            "byteOffset" : 29600,
            "target" : 34962
        }
    ],
    "buffers" : [
        {
            "byteLength" : 34368,
            "uri" : "obj.bin"
        }
    ],
    "images" : [
        {
            "name" : "rock",
            "uri" : "rock.png"
        }
    ],
    "materials" : [
        {
            "name" : "rock",
            "pbrMetallicRoughness" : {
                "baseColorFactor" : [
                    0.6400000190734865,
                    0.6400000190734865,
                    0.6400000190734865,
                    1.0
                ],
                "baseColorTexture" : {
                    "index" : 0
                },
                "metallicFactor" : 0.0
            }
        }
    ],
    "meshes" : [
        {
            "name" : "Sphere.301",
            "primitives" : [
                {
                    "attributes" : {
                        "NORMAL" : 2,
                        "POSITION" : 1,
                        "TANGENT" : 3,
                        "TEXCOORD_0" : 4
                    },
                    "indices" : 0,
                    "material" : 0
                }
            ]
        }
    ],
    "nodes" : [
        {
            "mesh" : 0,
            "name" : "Sphere.260",
            "rotation" : [
                0.11475704610347748,
                0.0,
                -0.0,
                0.99339359998703
            ],
            "scale" : [
                0.7140471935272217,
                0.7140471935272217,
                0.7140471935272217
            ],
            "translation" : [
                0.0,
                0.5059970617294312,
                -0.0
            ]
        }
    ],
    "samplers" : [
        {}
    ],
    "scene" : 7,
    "scenes" : [
        {
            "name" : "cetak"
        },
        {
            "name" : "garden"
        },
        {
            "name" : "general"
        },
        {
            "name" : "hair"
        },
        {
            "name" : "houses"
        },
        {
            "name" : "map"
        },
        {
            "name" : "nature"
        },
        {
            "name" : "Rocks",
            "nodes" : [
                0
            ]
        },
        {
            "name" : "Scene"
        },
        {
            "name" : "tent"
        },
        {
            "name" : "tree"
        },
        {
            "name" : "wall"
        },
        {
            "name" : "well"
        }
    ],
    "textures" : [
        {
            "sampler" : 0,
            "source" : 0
        }
    ]
}
