<?xml version="1.0" encoding="UTF-8" standalone="no"?>
<svg
   xmlns:dc="http://purl.org/dc/elements/1.1/"
   xmlns:cc="http://creativecommons.org/ns#"
   xmlns:rdf="http://www.w3.org/1999/02/22-rdf-syntax-ns#"
   xmlns:svg="http://www.w3.org/2000/svg"
   xmlns="http://www.w3.org/2000/svg"
   id="svg8"
   version="1.1"
   viewBox="0 0 150 150"
   height="150mm"
   width="150mm">
  <defs
     id="defs2" />
  <metadata
     id="metadata5">
    <rdf:RDF>
      <cc:Work
         rdf:about="">
        <dc:format>image/svg+xml</dc:format>
        <dc:type
           rdf:resource="http://purl.org/dc/dcmitype/StillImage" />
        <dc:title></dc:title>
      </cc:Work>
    </rdf:RDF>
  </metadata>
  <g
     transform="translate(0,-147)"
     id="layer1">
    <path
       id="path4550"
       d="m 138.69004,290.6232 c 2.33234,-1.09375 4.09369,-2.85513 5.18747,-5.18747 l 0.86049,-1.83489 v -61.58477 -61.58474 l -0.86049,-1.83489 c -1.09378,-2.33234 -2.85513,-4.09371 -5.18747,-5.18747 l -1.83489,-0.86049 H 75.270393 13.685638 l -1.83489,0.86049 c -2.3323433,1.09376 -4.093693,2.85513 -5.1874722,5.18747 l -0.8604855,1.83489 -0.085532,60.91408 c -0.093973,66.88708 -0.2171693,62.58103 1.8817289,65.74981 1.1825637,1.78531 3.0059348,3.12561 5.3640228,3.94287 1.624786,0.5631 4.685304,0.58839 62.80009,0.51877 l 61.09207,-0.0731 z"
       style="fill:#e64b3b;fill-opacity:0;stroke-width:0.32845205" />
    <path
       id="path4558"
       d="m 74.926236,176.42937 c -41.775927,0.007 -43.837188,0.035 -45.090946,0.61071 -1.562716,0.71761 -2.262712,1.44986 -2.943232,3.0786 -0.445002,1.06495 -0.505508,5.83372 -0.505508,39.98775 0,34.15404 0.06058,38.9228 0.505508,39.98774 0.68052,1.62875 1.380516,2.361 2.943232,3.0786 1.253758,0.57576 3.315019,0.60327 45.090946,0.61071 38.662944,0.006 43.917854,-0.0516 44.985724,-0.49781 1.62876,-0.68053 2.36164,-1.38116 3.07924,-2.94387 0.57475,-1.25142 0.60302,-3.16229 0.60302,-40.23537 0,-37.07307 -0.0284,-38.98396 -0.60302,-40.23538 -0.7176,-1.56271 -1.45048,-2.2627 -3.07924,-2.94323 -1.06787,-0.44623 -6.32278,-0.50466 -44.985724,-0.49845 z m 0.07126,5.21289 c 21.337615,0 42.675474,0.14352 42.961764,0.42981 0.25182,0.25182 0.39388,1.53239 0.39388,3.5469 0,2.01449 -0.14206,3.29572 -0.39388,3.54754 -0.57259,0.57258 -85.350332,0.57258 -85.9229,0 -0.251816,-0.25182 -0.394527,-1.53305 -0.394527,-3.54754 0,-2.01451 0.142711,-3.29508 0.394527,-3.5469 0.286278,-0.28629 21.623522,-0.42981 42.961136,-0.42981 z m 0,13.13808 c 21.337615,0 42.675474,0.14353 42.961764,0.42982 0.57154,0.57151 0.57154,62.35974 0,62.93127 -0.57259,0.57256 -85.350332,0.57256 -85.9229,0 -0.571537,-0.57153 -0.571537,-62.35976 0,-62.93127 0.286278,-0.28629 21.623522,-0.42982 42.961136,-0.42982 z"
       style="fill:#ffffff;stroke-width:0.32845205;fill-opacity:1" />
  </g>
</svg>
