{
    "accessors" : [
        {
            "bufferView" : 0,
            "componentType" : 5123,
            "count" : 372,
            "max" : [
                191
            ],
            "min" : [
                0
            ],
            "type" : "SCALAR"
        },
        {
            "bufferView" : 1,
            "componentType" : 5126,
            "count" : 192,
            "max" : [
                0.6747826337814331,
                0.6747826337814331,
                0.6747825741767883
            ],
            "min" : [
                -0.6747825741767883,
                -0.6747826337814331,
                -0.6747827529907227
            ],
            "type" : "VEC3"
        },
        {
            "bufferView" : 2,
            "componentType" : 5126,
            "count" : 192,
            "max" : [
                0.7278664708137512,
                0.6856898665428162,
                0.7278664708137512
            ],
            "min" : [
                -0.7278664708137512,
                -0.6856898665428162,
                -0.7278664708137512
            ],
            "type" : "VEC3"
        },
        {
            "bufferView" : 3,
            "componentType" : 5126,
            "count" : 192,
            "max" : [
                1.0,
                1.0
            ],
            "min" : [
                0.0,
                0.0
            ],
            "type" : "VEC2"
        },
        {
            "bufferView" : 4,
            "componentType" : 5123,
            "count" : 72,
            "max" : [
                47
            ],
            "min" : [
                0
            ],
            "type" : "SCALAR"
        },
        {
            "bufferView" : 5,
            "componentType" : 5126,
            "count" : 48,
            "max" : [
                0.3828083276748657,
                1.5954757928848267,
                1.0000122785568237
            ],
            "min" : [
                -0.6428017020225525,
                -3.568777322769165,
                -1.0
            ],
            "type" : "VEC3"
        },
        {
            "bufferView" : 6,
            "componentType" : 5126,
            "count" : 48,
            "max" : [
                0.99981689453125,
                0.9445478916168213,
                0.34772789478302
            ],
            "min" : [
                -0.999969482421875,
                -0.9985961318016052,
                -0.34772789478302
            ],
            "type" : "VEC3"
        },
        {
            "bufferView" : 7,
            "componentType" : 5126,
            "count" : 48,
            "max" : [
                1.0,
                1.0
            ],
            "min" : [
                0.0,
                0.0
            ],
            "type" : "VEC2"
        },
        {
            "bufferView" : 8,
            "componentType" : 5123,
            "count" : 36,
            "max" : [
                23
            ],
            "min" : [
                0
            ],
            "type" : "SCALAR"
        },
        {
            "bufferView" : 9,
            "componentType" : 5126,
            "count" : 24,
            "max" : [
                1.2051337957382202,
                0.5339068174362183,
                1.124965786933899
            ],
            "min" : [
                -1.126436471939087,
                -0.5339068174362183,
                -1.2066048383712769
            ],
            "type" : "VEC3"
        },
        {
            "bufferView" : 10,
            "componentType" : 5126,
            "count" : 24,
            "max" : [
                0.8654744029045105,
                1.0,
                0.8754539489746094
            ],
            "min" : [
                -0.8770104050636292,
                -1.0,
                -0.8670003414154053
            ],
            "type" : "VEC3"
        },
        {
            "bufferView" : 11,
            "componentType" : 5126,
            "count" : 24,
            "max" : [
                0.902313768863678,
                0.9983680844306946,
                0.5150490999221802,
                1.0
            ],
            "min" : [
                -0.8910433053970337,
                -2.3508098578872705e-08,
                -0.5260730981826782,
                1.0
            ],
            "type" : "VEC4"
        },
        {
            "bufferView" : 12,
            "componentType" : 5126,
            "count" : 24,
            "max" : [
                1.0,
                1.0
            ],
            "min" : [
                0.0,
                0.0
            ],
            "type" : "VEC2"
        }
    ],
    "asset" : {
        "generator" : "Khronos Blender glTF 2.0 exporter",
        "version" : "2.0"
    },
    "bufferViews" : [
        {
            "buffer" : 0,
            "byteLength" : 744,
            "byteOffset" : 0,
            "target" : 34963
        },
        {
            "buffer" : 0,
            "byteLength" : 2304,
            "byteOffset" : 744,
            "target" : 34962
        },
        {
            "buffer" : 0,
            "byteLength" : 2304,
            "byteOffset" : 3048,
            "target" : 34962
        },
        {
            "buffer" : 0,
            "byteLength" : 1536,
            "byteOffset" : 5352,
            "target" : 34962
        },
        {
            "buffer" : 0,
            "byteLength" : 144,
            "byteOffset" : 6888,
            "target" : 34963
        },
        {
            "buffer" : 0,
            "byteLength" : 576,
            "byteOffset" : 7032,
            "target" : 34962
        },
        {
            "buffer" : 0,
            "byteLength" : 576,
            "byteOffset" : 7608,
            "target" : 34962
        },
        {
            "buffer" : 0,
            "byteLength" : 384,
            "byteOffset" : 8184,
            "target" : 34962
        },
        {
            "buffer" : 0,
            "byteLength" : 72,
            "byteOffset" : 8568,
            "target" : 34963
        },
        {
            "buffer" : 0,
            "byteLength" : 288,
            "byteOffset" : 8640,
            "target" : 34962
        },
        {
            "buffer" : 0,
            "byteLength" : 288,
            "byteOffset" : 8928,
            "target" : 34962
        },
        {
            "buffer" : 0,
            "byteLength" : 384,
            "byteOffset" : 9216,
            "target" : 34962
        },
        {
            "buffer" : 0,
            "byteLength" : 192,
            "byteOffset" : 9600,
            "target" : 34962
        }
    ],
    "buffers" : [
        {
            "byteLength" : 9792,
            "uri" : "obj.bin"
        }
    ],
    "images" : [
        {
            "name" : "ornament_2",
            "uri" : "ornament_2.png"
        },
        {
            "name" : "ornament_3",
            "uri" : "ornament_3.png"
        },
        {
            "name" : "ornament_1",
            "uri" : "ornament_1.png"
        }
    ],
    "materials" : [
        {
            "name" : "ornament_1",
            "pbrMetallicRoughness" : {
                "baseColorFactor" : [
                    0.6400000190734865,
                    0.6400000190734865,
                    0.6400000190734865,
                    1.0
                ],
                "baseColorTexture" : {
                    "index" : 0
                },
                "metallicFactor" : 0.0
            }
        },
        {
            "name" : "ornament_2",
            "pbrMetallicRoughness" : {
                "baseColorFactor" : [
                    0.6400000190734865,
                    0.6400000190734865,
                    0.6400000190734865,
                    1.0
                ],
                "baseColorTexture" : {
                    "index" : 1
                },
                "metallicFactor" : 0.0
            }
        },
        {
            "name" : "ornament_3",
            "pbrMetallicRoughness" : {
                "baseColorFactor" : [
                    0.6400000190734865,
                    0.6400000190734865,
                    0.6400000190734865,
                    1.0
                ],
                "baseColorTexture" : {
                    "index" : 2
                },
                "metallicFactor" : 0.0
            }
        }
    ],
    "meshes" : [
        {
            "name" : "Cylinder",
            "primitives" : [
                {
                    "attributes" : {
                        "NORMAL" : 2,
                        "POSITION" : 1,
                        "TEXCOORD_0" : 3
                    },
                    "indices" : 0,
                    "material" : 1
                }
            ]
        },
        {
            "name" : "Cube.000",
            "primitives" : [
                {
                    "attributes" : {
                        "NORMAL" : 6,
                        "POSITION" : 5,
                        "TEXCOORD_0" : 7
                    },
                    "indices" : 4,
                    "material" : 2
                }
            ]
        },
        {
            "name" : "Cube.015",
            "primitives" : [
                {
                    "attributes" : {
                        "NORMAL" : 10,
                        "POSITION" : 9,
                        "TANGENT" : 11,
                        "TEXCOORD_0" : 12
                    },
                    "indices" : 8,
                    "material" : 0
                }
            ]
        }
    ],
    "nodes" : [
        {
            "mesh" : 1,
            "name" : "blade_thin",
            "rotation" : [
                6.090868365227209e-10,
                0.9999746680259705,
                8.145848795493293e-08,
                -0.007117644418030977
            ],
            "scale" : [
                0.11293589323759079,
                0.11993540823459625,
                0.0035269346553832293
            ],
            "translation" : [
                1.001285918755434e-16,
                0.4732993543148041,
                5.0567926508085834e-17
            ]
        },
        {
            "mesh" : 0,
            "name" : "grip_normal",
            "rotation" : [
                2.641085128374243e-09,
                -0.9998449087142944,
                3.77779194593586e-08,
                0.017611665651202202
            ],
            "scale" : [
                0.02757318876683712,
                0.046777646988630295,
                0.02757318876683712
            ],
            "translation" : [
                5.311830300759913e-17,
                0.004702270030975342,
                1.5241525411272661e-16
            ]
        },
        {
            "mesh" : 2,
            "name" : "rguard_slashed",
            "rotation" : [
                -2.0303877690253103e-08,
                -0.37008675932884216,
                -8.088504976910826e-09,
                0.9289972186088562
            ],
            "scale" : [
                0.0688716471195221,
                0.023996323347091675,
                0.0688716471195221
            ],
            "translation" : [
                7.641893530692365e-17,
                0.042439401149749756,
                1.0139720900251392e-16
            ]
        }
    ],
    "samplers" : [
        {}
    ],
    "scene" : 0,
    "scenes" : [
        {
            "name" : "Scene",
            "nodes" : [
                1,
                0,
                2
            ]
        }
    ],
    "textures" : [
        {
            "sampler" : 0,
            "source" : 0
        },
        {
            "sampler" : 0,
            "source" : 1
        },
        {
            "sampler" : 0,
            "source" : 2
        }
    ]
}
