{
    "accessors" : [
        {
            "bufferView" : 0,
            "componentType" : 5123,
            "count" : 2880,
            "max" : [
                591
            ],
            "min" : [
                0
            ],
            "type" : "SCALAR"
        },
        {
            "bufferView" : 1,
            "componentType" : 5126,
            "count" : 592,
            "max" : [
                0.8452764749526978,
                0.9432622194290161,
                0.5040225386619568
            ],
            "min" : [
                -0.8452761769294739,
                -0.9302189946174622,
                -0.5040229558944702
            ],
            "type" : "VEC3"
        },
        {
            "bufferView" : 2,
            "componentType" : 5126,
            "count" : 592,
            "max" : [
                0.9998779296875,
                1.0,
                0.999969482421875
            ],
            "min" : [
                -0.9998779296875,
                -1.0,
                -0.999969482421875
            ],
            "type" : "VEC3"
        },
        {
            "bufferView" : 3,
            "componentType" : 5126,
            "count" : 592,
            "max" : [
                1.0,
                0.756433367729187,
                0.9999856352806091,
                1.0
            ],
            "min" : [
                -0.7590914368629456,
                -0.7564331889152527,
                -0.9999856352806091,
                1.0
            ],
            "type" : "VEC4"
        },
        {
            "bufferView" : 4,
            "componentType" : 5126,
            "count" : 592,
            "max" : [
                1.5213401317596436,
                1.5213401317596436
            ],
            "min" : [
                -0.5213401317596436,
                -0.5213401317596436
            ],
            "type" : "VEC2"
        },
        {
            "bufferView" : 5,
            "componentType" : 5123,
            "count" : 2880,
            "max" : [
                645
            ],
            "min" : [
                0
            ],
            "type" : "SCALAR"
        },
        {
            "bufferView" : 6,
            "componentType" : 5126,
            "count" : 646,
            "max" : [
                1.0168935060501099,
                0.9432622194290161,
                0.62264084815979
            ],
            "min" : [
                -1.0168933868408203,
                -0.9302189946174622,
                -0.6226412653923035
            ],
            "type" : "VEC3"
        },
        {
            "bufferView" : 7,
            "componentType" : 5126,
            "count" : 646,
            "max" : [
                0.9980773329734802,
                1.0,
                0.9968870878219604
            ],
            "min" : [
                -0.9980773329734802,
                -1.0,
                -0.9968870878219604
            ],
            "type" : "VEC3"
        },
        {
            "bufferView" : 8,
            "componentType" : 5126,
            "count" : 646,
            "max" : [
                0.9923202991485596,
                0.999944269657135,
                0.9999023079872131,
                1.0
            ],
            "min" : [
                -0.8522534966468811,
                -0.9999436140060425,
                -1.0,
                1.0
            ],
            "type" : "VEC4"
        },
        {
            "bufferView" : 9,
            "componentType" : 5126,
            "count" : 646,
            "max" : [
                1.8264633417129517,
                1.8264633417129517
            ],
            "min" : [
                -0.8264633417129517,
                -0.8264633417129517
            ],
            "type" : "VEC2"
        }
    ],
    "asset" : {
        "generator" : "Khronos Blender glTF 2.0 exporter",
        "version" : "2.0"
    },
    "bufferViews" : [
        {
            "buffer" : 0,
            "byteLength" : 5760,
            "byteOffset" : 0,
            "target" : 34963
        },
        {
            "buffer" : 0,
            "byteLength" : 7104,
            "byteOffset" : 5760,
            "target" : 34962
        },
        {
            "buffer" : 0,
            "byteLength" : 7104,
            "byteOffset" : 12864,
            "target" : 34962
        },
        {
            "buffer" : 0,
            "byteLength" : 9472,
            "byteOffset" : 19968,
            "target" : 34962
        },
        {
            "buffer" : 0,
            "byteLength" : 4736,
            "byteOffset" : 29440,
            "target" : 34962
        },
        {
            "buffer" : 0,
            "byteLength" : 5760,
            "byteOffset" : 34176,
            "target" : 34963
        },
        {
            "buffer" : 0,
            "byteLength" : 7752,
            "byteOffset" : 39936,
            "target" : 34962
        },
        {
            "buffer" : 0,
            "byteLength" : 7752,
            "byteOffset" : 47688,
            "target" : 34962
        },
        {
            "buffer" : 0,
            "byteLength" : 10336,
            "byteOffset" : 55440,
            "target" : 34962
        },
        {
            "buffer" : 0,
            "byteLength" : 5168,
            "byteOffset" : 65776,
            "target" : 34962
        }
    ],
    "buffers" : [
        {
            "byteLength" : 70944,
            "uri" : "body.bin"
        }
    ],
    "images" : [
        {
            "name" : "ornament_1",
            "uri" : "ornament_1.png"
        },
        {
            "name" : "ornament_2",
            "uri" : "ornament_2.png"
        }
    ],
    "materials" : [
        {
            "name" : "ornament_1",
            "pbrMetallicRoughness" : {
                "baseColorFactor" : [
                    0.6400000190734865,
                    0.6400000190734865,
                    0.6400000190734865,
                    1.0
                ],
                "baseColorTexture" : {
                    "index" : 0
                },
                "metallicFactor" : 0.0
            }
        },
        {
            "name" : "ornament_2",
            "pbrMetallicRoughness" : {
                "baseColorFactor" : [
                    0.6400000190734865,
                    0.6400000190734865,
                    0.6400000190734865,
                    1.0
                ],
                "baseColorTexture" : {
                    "index" : 1
                },
                "metallicFactor" : 0.0
            }
        }
    ],
    "meshes" : [
        {
            "name" : "Sphere.103",
            "primitives" : [
                {
                    "attributes" : {
                        "NORMAL" : 2,
                        "POSITION" : 1,
                        "TANGENT" : 3,
                        "TEXCOORD_0" : 4
                    },
                    "indices" : 0,
                    "material" : 0
                }
            ]
        },
        {
            "name" : "Sphere.104",
            "primitives" : [
                {
                    "attributes" : {
                        "NORMAL" : 7,
                        "POSITION" : 6,
                        "TANGENT" : 8,
                        "TEXCOORD_0" : 9
                    },
                    "indices" : 5,
                    "material" : 0
                }
            ]
        }
    ],
    "nodes" : [
        {
            "mesh" : 1,
            "name" : "body.023",
            "rotation" : [
                -8.146034247147327e-08,
                0.0,
                -0.0,
                1.0
            ],
            "scale" : [
                0.13342976570129395,
                0.18011096119880676,
                0.22470217943191528
            ],
            "translation" : [
                0.0,
                0.17117412388324738,
                -0.0
            ]
        },
        {
            "mesh" : 0,
            "name" : "Sphere.147",
            "rotation" : [
                -8.146034247147327e-08,
                0.0,
                -0.0,
                1.0
            ],
            "scale" : [
                0.12161927670240402,
                0.07734240591526031,
                0.20481273531913757
            ],
            "translation" : [
                0.0,
                0.010181602090597153,
                -0.0
            ]
        }
    ],
    "samplers" : [
        {}
    ],
    "scene" : 3,
    "scenes" : [
        {
            "name" : "new"
        },
        {
            "name" : "Scene"
        },
        {
            "name" : "Scene.001"
        },
        {
            "name" : "SU00",
            "nodes" : [
                0,
                1
            ]
        },
        {
            "name" : "SU01"
        },
        {
            "name" : "SU02"
        },
        {
            "name" : "SU03"
        },
        {
            "name" : "SU04"
        },
        {
            "name" : "SU05"
        },
        {
            "name" : "SU06"
        },
        {
            "name" : "SU07"
        },
        {
            "name" : "SU08"
        },
        {
            "name" : "SU09"
        },
        {
            "name" : "SU10"
        },
        {
            "name" : "Untitled"
        }
    ],
    "textures" : [
        {
            "sampler" : 0,
            "source" : 0
        },
        {
            "sampler" : 0,
            "source" : 1
        }
    ]
}
