<?xml version="1.0" encoding="UTF-8" standalone="no"?>
<svg
   xmlns:dc="http://purl.org/dc/elements/1.1/"
   xmlns:cc="http://creativecommons.org/ns#"
   xmlns:rdf="http://www.w3.org/1999/02/22-rdf-syntax-ns#"
   xmlns:svg="http://www.w3.org/2000/svg"
   xmlns="http://www.w3.org/2000/svg"
   id="svg8"
   version="1.1"
   viewBox="0 0 150 150"
   height="150mm"
   width="150mm">
  <defs
     id="defs2" />
  <metadata
     id="metadata5">
    <rdf:RDF>
      <cc:Work
         rdf:about="">
        <dc:format>image/svg+xml</dc:format>
        <dc:type
           rdf:resource="http://purl.org/dc/dcmitype/StillImage" />
        <dc:title></dc:title>
      </cc:Work>
    </rdf:RDF>
  </metadata>
  <g
     transform="translate(0,-147)"
     id="layer1">
    <path
       id="path4550"
       d="m 138.69004,290.6232 c 2.33234,-1.09375 4.09369,-2.85513 5.18747,-5.18747 l 0.86049,-1.83489 v -61.58477 -61.58474 l -0.86049,-1.83489 c -1.09378,-2.33234 -2.85513,-4.09371 -5.18747,-5.18747 l -1.83489,-0.86049 H 75.270393 13.685638 l -1.83489,0.86049 c -2.3323433,1.09376 -4.093693,2.85513 -5.1874722,5.18747 l -0.8604855,1.83489 -0.085532,60.91408 c -0.093973,66.88708 -0.2171693,62.58103 1.8817289,65.74981 1.1825637,1.78531 3.0059348,3.12561 5.3640228,3.94287 1.624786,0.5631 4.685304,0.58839 62.80009,0.51877 l 61.09207,-0.0731 z"
       style="fill:#e64b3b;fill-opacity:0;stroke-width:0.32845205" />
    <path
       id="path4531"
       d="m 42.748756,254.36364 -1.788987,-1.81145 15.020376,-15.02305 c 8.261188,-8.26267 15.020376,-15.24355 15.020376,-15.51307 0,-0.26951 -6.760889,-7.25212 -15.024225,-15.51691 l -15.024248,-15.02689 1.887291,-1.88725 1.887252,-1.88727 15.026879,15.02423 c 8.264802,8.26332 15.247393,15.02422 15.516923,15.02422 0.269531,0 7.252121,-6.7609 15.516932,-15.02422 l 15.026865,-15.02423 1.88726,1.88727 1.88729,1.88725 -15.024253,15.02689 c -8.263333,8.26479 -15.024225,15.2474 -15.024225,15.51691 0,0.26952 6.760892,7.25213 15.024225,15.51692 l 15.024253,15.02691 -1.88729,1.88725 -1.88726,1.88726 -15.026865,-15.02422 c -8.264811,-8.26333 -15.24862,-15.02424 -15.519625,-15.02424 -0.270974,0 -7.216521,6.72505 -15.434557,14.94458 -8.218023,8.21951 -15.021417,14.94456 -15.118642,14.94456 -0.0972,0 -0.981844,-0.81514 -1.965745,-1.81145 z"
       style="fill:#ffffff;stroke-width:0.32845205;fill-opacity:1" />
  </g>
</svg>
