<?xml version="1.0" encoding="UTF-8" standalone="no"?>
<svg
   xmlns:dc="http://purl.org/dc/elements/1.1/"
   xmlns:cc="http://creativecommons.org/ns#"
   xmlns:rdf="http://www.w3.org/1999/02/22-rdf-syntax-ns#"
   xmlns:svg="http://www.w3.org/2000/svg"
   xmlns="http://www.w3.org/2000/svg"
   xmlns:sodipodi="http://sodipodi.sourceforge.net/DTD/sodipodi-0.dtd"
   xmlns:inkscape="http://www.inkscape.org/namespaces/inkscape"
   id="svg8"
   version="1.1"
   viewBox="0 0 1000 400"
   height="400mm"
   width="1000mm"
   inkscape:version="0.91 r13725"
   sodipodi:docname="Enlite.svg">
  <sodipodi:namedview
     pagecolor="#ffffff"
     bordercolor="#666666"
     borderopacity="1"
     objecttolerance="10"
     gridtolerance="10"
     guidetolerance="10"
     inkscape:pageopacity="0"
     inkscape:pageshadow="2"
     inkscape:window-width="1536"
     inkscape:window-height="801"
     id="namedview7"
     showgrid="false"
     inkscape:zoom="0.16707556"
     inkscape:cx="1742.0146"
     inkscape:cy="1276.5128"
     inkscape:window-x="-8"
     inkscape:window-y="-8"
     inkscape:window-maximized="1"
     inkscape:current-layer="svg8" />
  <defs
     id="defs2" />
  <metadata
     id="metadata5">
    <rdf:RDF>
      <cc:Work
         rdf:about="">
        <dc:format>image/svg+xml</dc:format>
        <dc:type
           rdf:resource="http://purl.org/dc/dcmitype/StillImage" />
        <dc:title />
      </cc:Work>
    </rdf:RDF>
  </metadata>
  <text
     xml:space="preserve"
     style="font-style:normal;font-weight:normal;font-size:79.9864502px;line-height:125%;font-family:sans-serif;letter-spacing:0px;word-spacing:0px;fill:#000000;fill-opacity:1;stroke:none;stroke-width:1px;stroke-linecap:butt;stroke-linejoin:miter;stroke-opacity:1"
     x="30.128979"
     y="-114.36023"
     id="text4135"
     sodipodi:linespacing="125%"><tspan
       sodipodi:role="line"
       id="tspan4137"
       x="30.128979"
       y="-114.36023"
       style="font-style:normal;font-variant:normal;font-weight:normal;font-stretch:normal;font-size:359.93902588px;line-height:125%;font-family:'Book Antiqua';-inkscape-font-specification:'Book Antiqua';text-align:start;writing-mode:lr-tb;text-anchor:start">Enlite</tspan></text>
  <g
     id="g5000">
    <path
       style="fill:#daa520;fill-opacity:1"
       d="m 750.46298,325.81582 c -10.9735,-2.09535 -22.6263,-9.98907 -26.5327,-17.97348 -3.9143,-8.00054 -3.9646,-8.91185 -3.9781,-72.11367 l -0.012,-58.2983 -14.6012,0.25399 -14.6012,0.25398 -0.2277,-3.18687 c -0.4015,-5.61902 -0.01,-6.14543 6.5295,-8.76803 3.2758,-1.31383 9.6874,-4.07764 14.248,-6.14181 l 8.2921,-3.75301 0.1856,-10.70656 c 0.1021,-5.88861 -0.06,-18.59654 -0.3606,-28.23983 -0.3004,-9.64331 -0.3411,-18.085168 -0.091,-18.759708 0.2505,-0.67453 3.0085,-2.33171 6.1289,-3.68263 3.1204,-1.35091 10.1528,-4.67022 15.6276,-7.37625 9.4077,-4.64999 10.0608,-4.86484 11.8989,-3.91431 4.5954,2.37634 4.7029,2.79968 3.81,14.99449 -0.8682,11.857238 -2.211,43.032148 -2.2221,51.593938 l -0.01,5.22759 10.2749,-0.0367 c 5.6512,-0.0202 16.9266,-0.31877 25.0564,-0.66352 11.5682,-0.49055 14.9851,-0.43012 15.7181,0.27804 0.7536,0.72808 0.7807,2.51294 0.1381,9.13583 -0.4391,4.52702 -1.095,8.95669 -1.4576,9.8437 l -0.6591,1.61274 -24.3551,0.18987 -24.3552,0.18988 0,52.27594 0,52.27594 1.6526,5.25908 c 4.7958,15.26095 20.8445,19.56098 36.2412,9.71032 l 5.2415,-3.35355 3.1608,3.49111 c 1.7383,1.92011 3.0649,3.93522 2.9479,4.47803 -0.3618,1.67824 -17.4166,21.69236 -19.2127,22.54648 -7.6469,3.63642 -24.449,5.27247 -34.4788,3.35728 z m 142.528,0.55783 c -0.9914,-0.14553 -4.2361,-0.62443 -7.2104,-1.06423 -2.9744,-0.43978 -8.2133,-1.71605 -11.6421,-2.83615 -29.3041,-9.57291 -48.5834,-32.80312 -54.4262,-65.58023 -1.981,-11.1124 -1.8362,-31.94113 0.3011,-43.34031 3.9471,-21.0514 12.6407,-38.12397 24.3984,-47.91363 13.2819,-11.05871 29.4588,-19.50782 45.695,-23.86628 7.0647,-1.89644 8.4631,-2.02896 20.9104,-1.98145 12.0034,0.0458 14.0429,0.2392 20.364,1.9311 25.771,6.89787 42.3026,23.56879 48.882,49.29392 2.7221,10.6435 3.3688,33.67339 1.0006,35.63875 -1.1472,0.95212 -14.1267,3.3461 -23.739,4.37853 -3.9658,0.42596 -28.3011,0.98366 -54.0786,1.23937 l -46.8681,0.46491 0.201,5.04733 c 0.2646,6.64489 2.5885,18.95878 4.8112,25.49378 2.9714,8.73617 7.4892,16.4073 13.3317,22.63679 8.6339,9.2058 16.7583,13.97777 29.2453,17.1776 9.3173,2.38759 24.506,2.38134 34.2497,-0.0141 10.8654,-2.67119 19.5513,-6.31827 29.9125,-12.55978 3.9285,-2.36647 4.3433,-2.46896 6.17,-1.52437 1.0771,0.55697 2.17,1.56446 2.4288,2.23887 0.272,0.70884 -0.8098,4.55301 -2.5641,9.11139 -3.4217,8.89104 -3.3661,8.83667 -14.3835,14.05846 -12.3744,5.86491 -27.7325,10.21807 -41.1838,11.67325 -6.5691,0.71066 -21.7927,0.88556 -25.8059,0.29648 z m 50.3893,-110.34055 2.4395,-0.43167 -0.4144,-10.17897 c -0.6141,-15.08286 -3.8646,-27.22496 -9.3232,-34.82581 -7.0946,-9.87912 -22.3013,-16.10872 -36.9439,-15.13459 -11.0528,0.73531 -18.9819,4.07824 -25.9475,10.93953 -9.6929,9.54766 -14.4052,22.1853 -15.962,42.80689 l -0.4971,6.58485 3.1679,0.0977 c 1.7424,0.0537 10.9553,0.34258 20.4731,0.64185 18.0785,0.56844 58.7957,0.24546 63.0076,-0.4998 z M 124.71491,322.70434 c -36.007417,-0.74539 -55.811957,-0.81898 -77.767997,-0.28896 -16.2018,0.3911 -29.92237,0.53284 -30.49016,0.31495 -0.81326,-0.31208 -0.98859,-1.79306 -0.82617,-6.97875 l 0.20616,-6.5826 9.73414,-0.4246 c 14.49025,-0.63205 17.89748,-2.16333 19.83809,-8.91563 2.51264,-8.74271 2.71443,-15.20687 3.03972,-97.37479 0.31533,-79.65094 0.0242,-96.23608 -2.03179,-115.728118 -1.54924,-14.68802 -2.37027,-15.27119 -24.45125,-17.36762 -4.9572,-0.47065 -9.58092,-1.14726 -10.27493,-1.50356 -1.05072,-0.53945 -1.26183,-1.66476 -1.26183,-6.726 0,-5.47395 0.15348,-6.16031 1.54402,-6.9045 1.16114,-0.62142 9.52016,-0.61456 33.70897,0.0277 22.66065,0.60166 48.89012,0.67301 88.767167,0.24145 52.45063,-0.56764 73.23955,-0.35212 81.20124,0.84181 3.86062,0.57893 3.89621,0.87714 1.35282,11.33574 -2.23816,9.2035 -3.62678,19.64327 -4.7296,35.557518 -0.51235,7.39352 -1.17198,12.46803 -1.66222,12.78756 -1.3737,0.89534 -12.33674,0.63673 -13.2869,-0.31343 -0.52402,-0.52403 -0.86525,-3.06774 -0.86525,-6.45016 0,-6.52732 -1.30497,-22.710548 -2.05851,-25.528168 -0.62947,-2.35367 -4.42346,-3.71192 -18.13082,-6.49087 -14.53965,-2.94768 -29.5725,-3.6198 -57.6838,-2.57907 -13.2853,0.49185 -25.452977,1.12476 -27.039277,1.40646 l -2.88419,0.51219 -0.57388,48.960748 c -0.46567,39.72859 -0.39768,49.13514 0.36052,49.8856 1.39786,1.38358 40.941127,2.089 60.060297,1.07144 15.43109,-0.82127 19.95242,-1.53129 22.14243,-3.47716 2.43436,-2.16299 3.69114,-8.05071 4.12226,-19.31182 l 0.41407,-10.81571 6.56014,-0.20587 c 4.68011,-0.14687 6.77889,0.0598 7.3234,0.72105 0.53676,0.65185 0.53816,7.73036 0.005,23.85346 -0.54088,16.34854 -0.53163,28.76138 0.0322,43.26285 0.91981,23.66439 1.38216,22.13892 -6.71035,22.13892 -3.01536,0 -5.60377,-0.37176 -6.27546,-0.90131 -0.91041,-0.71775 -1.21961,-2.95711 -1.51828,-10.99597 -0.42489,-11.43577 -1.72114,-16.83629 -4.77381,-19.88897 -2.47303,-2.47302 -5.33605,-3.23162 -16.27435,-4.31209 -9.75942,-0.96403 -51.92465,-1.0946 -60.207457,-0.18644 l -5.40786,0.59293 0.27367,52.63646 c 0.17998,34.61772 0.52488,52.79692 1.0075,53.10518 1.48191,0.94651 25.427967,1.69379 53.518437,1.67017 31.24412,-0.0263 40.53413,-0.7734 51.5549,-4.14606 l 5.40785,-1.65495 1.64511,-6.10046 c 0.90481,-3.35525 3.04722,-12.51507 4.7609,-20.35515 1.71369,-7.84008 3.31422,-14.45311 3.55674,-14.69564 0.84428,-0.84428 10.24022,-1.10467 12.20946,-0.33835 1.73504,0.67517 1.9822,1.15687 1.97744,3.85391 -0.003,1.69527 -0.33108,5.08862 -0.72906,7.5408 -1.42421,8.77525 -3.59178,35.26623 -3.59178,43.89701 0,6.44135 -0.25669,9.00421 -0.96031,9.58817 -1.11804,0.92789 -16.63553,2.06254 -33.64997,2.4605 -6.54351,0.15306 -33.63687,-0.17175 -60.20747,-0.72178 z m 115.90839,-0.27665 c -1.18138,-1.21741 -1.21027,-10.85872 -0.0361,-12.03293 0.58412,-0.58413 3.92257,-0.86656 10.27493,-0.86928 15.19924,-0.006 18.08228,-1.46802 19.20204,-9.73423 1.0357,-7.64576 1.90426,-70.13069 1.38809,-99.86096 -0.50684,-29.19277 -0.65154,-30.08418 -5.13725,-31.64791 -1.26402,-0.44065 -6.91414,-0.79922 -12.5933,-0.79922 -5.66536,0 -11.13296,-0.31644 -12.15021,-0.70321 -1.75548,-0.66743 -1.84956,-0.97471 -1.84956,-6.04061 0,-3.39358 0.32825,-5.60759 0.90131,-6.07927 0.49572,-0.40802 2.52366,-0.9606 4.50654,-1.22796 17.33933,-2.33789 34.69712,-6.88206 50.68028,-13.26778 5.20519,-2.07961 7.74568,-1.99034 9.26308,0.32549 1.07594,1.6421 1.16064,3.53466 0.75829,16.94462 -0.24912,8.30283 -0.17845,15.09605 0.15703,15.09605 0.33547,0 5.76109,-4.58444 12.05692,-10.18764 19.08961,-16.98948 19.94221,-17.55819 30.73197,-20.49946 8.30861,-2.2649 22.0565,-3.08606 30.64416,-1.83039 14.69923,2.14931 27.06184,8.04627 36.28142,17.30621 7.45782,7.49046 10.95618,14.19697 13.35837,25.60853 1.37969,6.55421 2.69897,26.78647 2.14305,32.86559 -0.81022,8.86013 -0.56244,77.23781 0.29917,82.55994 1.52915,9.44539 4.26821,11.13623 18.07928,11.1604 6.05752,0.0106 9.3352,0.30189 9.9144,0.88109 1.18234,1.18234 1.15281,10.97921 -0.036,11.95811 -0.61798,0.50885 -6.35913,0.50729 -18.26357,-0.005 -11.92504,-0.51313 -21.97338,-0.5151 -32.08661,-0.006 -11.84789,0.59609 -14.9158,0.55868 -15.70435,-0.19146 -0.8091,-0.76969 -0.83833,-2.42295 -0.16762,-9.48039 2.18463,-22.98724 3.63169,-88.09784 2.31216,-104.03617 -1.59417,-19.25577 -5.37322,-27.76108 -15.5666,-35.03492 -8.95437,-6.38971 -20.5022,-9.0085 -33.38793,-7.57166 -12.39868,1.38254 -21.2844,5.48922 -29.69895,13.72587 -5.30206,5.18996 -8.31189,10.48822 -9.44609,16.62813 -1.01995,5.52141 -1.6137,64.32663 -0.88193,87.34639 0.56433,17.75261 0.72841,19.42081 2.09205,21.27089 2.41504,3.27654 7.15798,4.46333 17.98249,4.49964 6.31882,0.0212 9.69389,0.31577 10.27493,0.89681 1.20728,1.20728 1.15048,10.97926 -0.0697,11.99192 -0.66599,0.55272 -7.25193,0.56001 -22.89326,0.0253 -20.35069,-0.69566 -54.34453,-0.42418 -67.02378,0.53526 -3.91801,0.29648 -5.65616,0.15334 -6.30916,-0.51957 z m 227.851,0.002 c -0.55083,-0.56916 -0.9013,-2.94375 -0.9013,-6.10665 0,-3.26885 0.33202,-5.44525 0.9013,-5.90799 0.49572,-0.40296 5.38118,-1.10161 10.85658,-1.55258 10.39526,-0.85617 15.17643,-2.16372 16.422,-4.49109 1.85105,-3.45872 2.24013,-19.04465 2.57123,-102.99949 0.31893,-80.87046 -0.22157,-126.088728 -1.54517,-129.267778 -1.03207,-2.47884 -3.42686,-2.9944 -15.71338,-3.38281 -9.67636,-0.30556 -12.24163,-0.5993 -12.78755,-1.4639 -1.1181,-1.77076 -0.86202,-10.55569 0.34281,-11.76053 0.63974,-0.63973 3.93939,-1.3771 8.47231,-1.89329 17.04993,-1.94155 33.84756,-5.77778 46.25314,-10.56325 7.38651,-2.84936 9.12355,-3.00864 10.93862,-1.00301 1.25726,1.38925 1.27944,2.4272 0.4661,21.81168 -2.09923,50.031318 -2.42718,73.414828 -2.0644,147.197578 0.38314,77.92388 0.82362,91.0025 3.15159,93.57488 1.71342,1.89331 7.17526,3.22894 17.17894,4.20094 4.75892,0.46239 9.05816,1.17482 9.55388,1.58317 0.57,0.46954 0.90131,2.66537 0.90131,5.97372 0,3.3057 -0.33176,5.5064 -0.90131,5.9787 -0.6192,0.51349 -5.8663,0.52524 -16.76435,0.0376 -14.9537,-0.6692 -52.15176,-0.37301 -68.86004,0.54831 -5.69133,0.31382 -7.79477,0.18626 -8.47231,-0.51381 z m 112.48338,-5e-5 c -0.5508,-0.56913 -0.9013,-2.94367 -0.9013,-6.1066 0,-3.27011 0.3318,-5.44419 0.9013,-5.90562 0.4958,-0.40164 5.68,-1.24515 11.5206,-1.87446 5.8406,-0.6293 11.7287,-1.60778 13.0848,-2.17438 2.1669,-0.90538 2.5658,-1.49701 3.2931,-4.88352 0.4551,-2.11933 1.1297,-9.53158 1.4991,-16.47166 0.8539,-16.03934 0.8755,-96.2701 0.028,-105.02225 -1.0584,-10.93538 -2.3393,-11.77688 -17.9365,-11.78341 -5.2807,-0.002 -10.2289,-0.33991 -10.996,-0.75044 -1.2001,-0.64198 -1.3946,-1.54929 -1.3946,-6.50456 0,-6.95148 -1.0891,-6.29274 14.7814,-8.94129 16.7457,-2.7946 29.6858,-6.32357 43.5644,-11.8806 3.3243,-1.33108 4.2194,-1.43474 6.0045,-0.69535 3.7574,1.55636 4.1998,3.04034 3.4503,11.57172 -2.0588,23.43326 -2.6361,128.87408 -0.7863,143.62684 1.298,10.35247 3.0688,11.59122 19.9478,13.95436 l 9.2957,1.30145 0.6322,3.00743 c 0.7657,3.64257 0.02,9.34557 -1.2881,9.84743 -0.5221,0.20034 -10.1596,0.0393 -21.4166,-0.35784 -19.0499,-0.67209 -58.165,-0.34238 -68.0564,0.57366 -3.0406,0.28159 -4.5942,0.12391 -5.2276,-0.53058 z m 38.2995,-223.502808 c -5.0249,-1.93255 -10.5959,-7.57917 -12.5008,-12.67053 -3.0283,-8.09383 -1.341,-16.64968 4.5559,-23.10184 5.4032,-5.91195 8.0755,-7.0689 16.3333,-7.0713 7.7577,-0.002 9.5713,0.68028 14.9284,5.61833 6.5244,6.01401 8.9319,14.88849 6.3048,23.24073 -1.81,5.75463 -7.5924,11.97809 -13.0137,14.00647 -5.0641,1.894718 -11.6471,1.886058 -16.6079,-0.0219 z"
       id="path5014"
       inkscape:connector-curvature="0" />
  </g>
</svg>
