{
    "accessors" : [
        {
            "bufferView" : 0,
            "componentType" : 5123,
            "count" : 36,
            "max" : [
                23
            ],
            "min" : [
                0
            ],
            "type" : "SCALAR"
        },
        {
            "bufferView" : 1,
            "componentType" : 5126,
            "count" : 24,
            "max" : [
                1.0,
                0.2814156413078308,
                1.0
            ],
            "min" : [
                -1.0,
                -1.0021690130233765,
                -1.0
            ],
            "type" : "VEC3"
        },
        {
            "bufferView" : 2,
            "componentType" : 5126,
            "count" : 24,
            "max" : [
                1.0,
                1.0,
                1.0
            ],
            "min" : [
                -1.0,
                -1.0,
                -1.0
            ],
            "type" : "VEC3"
        },
        {
            "bufferView" : 3,
            "componentType" : 5126,
            "count" : 24,
            "max" : [
                1.0,
                2.5915063872616884e-08,
                1.0,
                1.0
            ],
            "min" : [
                -0.9999977350234985,
                -0.005560097750276327,
                -1.0,
                1.0
            ],
            "type" : "VEC4"
        },
        {
            "bufferView" : 4,
            "componentType" : 5126,
            "count" : 24,
            "max" : [
                16.38336944580078,
                2.3827439546585083
            ],
            "min" : [
                -8.173502922058105,
                -1.2602448463439941
            ],
            "type" : "VEC2"
        }
    ],
    "asset" : {
        "generator" : "Khronos Blender glTF 2.0 exporter",
        "version" : "2.0"
    },
    "bufferViews" : [
        {
            "buffer" : 0,
            "byteLength" : 72,
            "byteOffset" : 0,
            "target" : 34963
        },
        {
            "buffer" : 0,
            "byteLength" : 288,
            "byteOffset" : 72,
            "target" : 34962
        },
        {
            "buffer" : 0,
            "byteLength" : 288,
            "byteOffset" : 360,
            "target" : 34962
        },
        {
            "buffer" : 0,
            "byteLength" : 384,
            "byteOffset" : 648,
            "target" : 34962
        },
        {
            "buffer" : 0,
            "byteLength" : 192,
            "byteOffset" : 1032,
            "target" : 34962
        }
    ],
    "buffers" : [
        {
            "byteLength" : 1224,
            "uri" : "obj.bin"
        }
    ],
    "images" : [
        {
            "name" : "wall",
            "uri" : "wall.png"
        }
    ],
    "materials" : [
        {
            "name" : "wall",
            "pbrMetallicRoughness" : {
                "baseColorFactor" : [
                    0.800000011920929,
                    0.800000011920929,
                    0.800000011920929,
                    1.0
                ],
                "baseColorTexture" : {
                    "index" : 0
                },
                "metallicFactor" : 0.0
            }
        }
    ],
    "meshes" : [
        {
            "name" : "Cube.099",
            "primitives" : [
                {
                    "attributes" : {
                        "NORMAL" : 2,
                        "POSITION" : 1,
                        "TANGENT" : 3,
                        "TEXCOORD_0" : 4
                    },
                    "indices" : 0,
                    "material" : 0
                }
            ]
        }
    ],
    "nodes" : [
        {
            "mesh" : 0,
            "name" : "Cube.069",
            "scale" : [
                4.365341663360596,
                0.6299999952316284,
                0.21727347373962402
            ],
            "translation" : [
                0.0,
                0.5326740741729736,
                -0.0
            ]
        }
    ],
    "samplers" : [
        {}
    ],
    "scene" : 5,
    "scenes" : [
        {
            "name" : "cetak"
        },
        {
            "name" : "general"
        },
        {
            "name" : "hair"
        },
        {
            "name" : "houses"
        },
        {
            "name" : "nature"
        },
        {
            "name" : "wall",
            "nodes" : [
                0
            ]
        }
    ],
    "textures" : [
        {
            "sampler" : 0,
            "source" : 0
        }
    ]
}
