{
    "accessors" : [
        {
            "bufferView" : 0,
            "componentType" : 5123,
            "count" : 2880,
            "max" : [
                603
            ],
            "min" : [
                0
            ],
            "type" : "SCALAR"
        },
        {
            "bufferView" : 1,
            "componentType" : 5126,
            "count" : 604,
            "max" : [
                1.000000238418579,
                1.0,
                1.0000003576278687
            ],
            "min" : [
                -0.9999998211860657,
                -1.0,
                -1.0
            ],
            "type" : "VEC3"
        },
        {
            "bufferView" : 2,
            "componentType" : 5126,
            "count" : 604,
            "max" : [
                1.0,
                1.0,
                1.0
            ],
            "min" : [
                -1.0,
                -1.0,
                -1.0
            ],
            "type" : "VEC3"
        },
        {
            "bufferView" : 3,
            "componentType" : 5126,
            "count" : 604,
            "max" : [
                0.9258291721343994,
                0.7356868386268616,
                0.9992983341217041,
                1.0
            ],
            "min" : [
                -0.9258292317390442,
                -0.712035059928894,
                -0.9992217421531677,
                1.0
            ],
            "type" : "VEC4"
        },
        {
            "bufferView" : 4,
            "componentType" : 5126,
            "count" : 604,
            "max" : [
                1.0,
                1.0
            ],
            "min" : [
                0.0,
                0.0
            ],
            "type" : "VEC2"
        }
    ],
    "asset" : {
        "generator" : "Khronos Blender glTF 2.0 exporter",
        "version" : "2.0"
    },
    "bufferViews" : [
        {
            "buffer" : 0,
            "byteLength" : 5760,
            "byteOffset" : 0,
            "target" : 34963
        },
        {
            "buffer" : 0,
            "byteLength" : 7248,
            "byteOffset" : 5760,
            "target" : 34962
        },
        {
            "buffer" : 0,
            "byteLength" : 7248,
            "byteOffset" : 13008,
            "target" : 34962
        },
        {
            "buffer" : 0,
            "byteLength" : 9664,
            "byteOffset" : 20256,
            "target" : 34962
        },
        {
            "buffer" : 0,
            "byteLength" : 4832,
            "byteOffset" : 29920,
            "target" : 34962
        }
    ],
    "buffers" : [
        {
            "byteLength" : 34752,
            "uri" : "obj.bin"
        }
    ],
    "images" : [
        {
            "name" : "water",
            "uri" : "water.png"
        }
    ],
    "materials" : [
        {
            "name" : "portal",
            "pbrMetallicRoughness" : {
                "baseColorFactor" : [
                    0.6400000190734865,
                    0.6400000190734865,
                    0.6400000190734865,
                    1.0
                ],
                "baseColorTexture" : {
                    "index" : 0
                },
                "metallicFactor" : 0.0
            }
        }
    ],
    "meshes" : [
        {
            "name" : "Sphere",
            "primitives" : [
                {
                    "attributes" : {
                        "NORMAL" : 2,
                        "POSITION" : 1,
                        "TANGENT" : 3,
                        "TEXCOORD_0" : 4
                    },
                    "indices" : 0,
                    "material" : 0
                }
            ]
        }
    ],
    "nodes" : [
        {
            "mesh" : 0,
            "name" : "Sphere.063",
            "scale" : [
                0.5038451552391052,
                0.5038451552391052,
                0.5038451552391052
            ],
            "translation" : [
                0.0,
                0.5971118211746216,
                -0.0
            ]
        }
    ],
    "samplers" : [
        {}
    ],
    "scene" : 1,
    "scenes" : [
        {
            "name" : "cetak"
        },
        {
            "name" : "general",
            "nodes" : [
                0
            ]
        },
        {
            "name" : "hair"
        },
        {
            "name" : "houses"
        },
        {
            "name" : "nature"
        },
        {
            "name" : "Scene"
        },
        {
            "name" : "wall"
        }
    ],
    "textures" : [
        {
            "sampler" : 0,
            "source" : 0
        }
    ]
}
