{
    "accessors" : [
        {
            "bufferView" : 0,
            "componentType" : 5123,
            "count" : 6600,
            "max" : [
                1591
            ],
            "min" : [
                0
            ],
            "type" : "SCALAR"
        },
        {
            "bufferView" : 1,
            "componentType" : 5126,
            "count" : 1592,
            "max" : [
                9.387537956237793,
                7.373393535614014,
                1.0748728513717651
            ],
            "min" : [
                -3.0425944328308105,
                -1.3928238153457642,
                -6.180172920227051
            ],
            "type" : "VEC3"
        },
        {
            "bufferView" : 2,
            "componentType" : 5126,
            "count" : 1592,
            "max" : [
                0.9964903593063354,
                0.9974364638328552,
                0.9971007108688354
            ],
            "min" : [
                -0.9987487196922302,
                -0.9979857802391052,
                -0.999847412109375
            ],
            "type" : "VEC3"
        },
        {
            "bufferView" : 3,
            "componentType" : 5126,
            "count" : 1592,
            "max" : [
                0.9971327185630798,
                0.9999886155128479,
                0.9999769926071167,
                1.0
            ],
            "min" : [
                -0.9943696856498718,
                -0.9998617768287659,
                -0.9997976422309875,
                1.0
            ],
            "type" : "VEC4"
        },
        {
            "bufferView" : 4,
            "componentType" : 5126,
            "count" : 1592,
            "max" : [
                0.9999999403953552,
                1.0
            ],
            "min" : [
                0.0,
                0.0
            ],
            "type" : "VEC2"
        },
        {
            "bufferView" : 5,
            "componentType" : 5123,
            "count" : 2148,
            "max" : [
                495
            ],
            "min" : [
                0
            ],
            "type" : "SCALAR"
        },
        {
            "bufferView" : 6,
            "componentType" : 5126,
            "count" : 496,
            "max" : [
                1.3259481191635132,
                1.1202898025512695,
                0.9039071202278137
            ],
            "min" : [
                -5.431236267089844,
                -1.1202936172485352,
                -0.9039071202278137
            ],
            "type" : "VEC3"
        },
        {
            "bufferView" : 7,
            "componentType" : 5126,
            "count" : 496,
            "max" : [
                0.9338053464889526,
                0.9808038473129272,
                0.9880367517471313
            ],
            "min" : [
                -0.9706717133522034,
                -0.9808038473129272,
                -0.9880367517471313
            ],
            "type" : "VEC3"
        },
        {
            "bufferView" : 8,
            "componentType" : 5126,
            "count" : 496,
            "max" : [
                0.6160767674446106,
                0.9897657632827759,
                0.9814682006835938,
                1.0
            ],
            "min" : [
                -0.8946691155433655,
                -0.9355793595314026,
                -0.9809442162513733,
                1.0
            ],
            "type" : "VEC4"
        },
        {
            "bufferView" : 9,
            "componentType" : 5126,
            "count" : 496,
            "max" : [
                1.0,
                1.0
            ],
            "min" : [
                0.0,
                0.0
            ],
            "type" : "VEC2"
        },
        {
            "bufferView" : 10,
            "componentType" : 5123,
            "count" : 1440,
            "max" : [
                368
            ],
            "min" : [
                0
            ],
            "type" : "SCALAR"
        },
        {
            "bufferView" : 11,
            "componentType" : 5126,
            "count" : 369,
            "max" : [
                1.25,
                0.21650634706020355,
                1.25
            ],
            "min" : [
                -1.25,
                -0.21650634706020355,
                -1.25
            ],
            "type" : "VEC3"
        },
        {
            "bufferView" : 12,
            "componentType" : 5126,
            "count" : 369,
            "max" : [
                1.0,
                0.9371623992919922,
                1.0
            ],
            "min" : [
                -1.0,
                -0.7070833444595337,
                -1.0
            ],
            "type" : "VEC3"
        },
        {
            "bufferView" : 13,
            "componentType" : 5126,
            "count" : 369,
            "max" : [
                1.0,
                0.9999997615814209,
                0.9471445083618164,
                1.0
            ],
            "min" : [
                -0.46934500336647034,
                -0.9999674558639526,
                -0.9365195035934448,
                -1.0
            ],
            "type" : "VEC4"
        },
        {
            "bufferView" : 14,
            "componentType" : 5126,
            "count" : 369,
            "max" : [
                1.0831477642059326,
                1.195297122001648
            ],
            "min" : [
                -0.19529712200164795,
                -0.11685824394226074
            ],
            "type" : "VEC2"
        }
    ],
    "asset" : {
        "generator" : "Khronos Blender glTF 2.0 exporter",
        "version" : "2.0"
    },
    "bufferViews" : [
        {
            "buffer" : 0,
            "byteLength" : 13200,
            "byteOffset" : 0,
            "target" : 34963
        },
        {
            "buffer" : 0,
            "byteLength" : 19104,
            "byteOffset" : 13200,
            "target" : 34962
        },
        {
            "buffer" : 0,
            "byteLength" : 19104,
            "byteOffset" : 32304,
            "target" : 34962
        },
        {
            "buffer" : 0,
            "byteLength" : 25472,
            "byteOffset" : 51408,
            "target" : 34962
        },
        {
            "buffer" : 0,
            "byteLength" : 12736,
            "byteOffset" : 76880,
            "target" : 34962
        },
        {
            "buffer" : 0,
            "byteLength" : 4296,
            "byteOffset" : 89616,
            "target" : 34963
        },
        {
            "buffer" : 0,
            "byteLength" : 5952,
            "byteOffset" : 93912,
            "target" : 34962
        },
        {
            "buffer" : 0,
            "byteLength" : 5952,
            "byteOffset" : 99864,
            "target" : 34962
        },
        {
            "buffer" : 0,
            "byteLength" : 7936,
            "byteOffset" : 105816,
            "target" : 34962
        },
        {
            "buffer" : 0,
            "byteLength" : 3968,
            "byteOffset" : 113752,
            "target" : 34962
        },
        {
            "buffer" : 0,
            "byteLength" : 2880,
            "byteOffset" : 117720,
            "target" : 34963
        },
        {
            "buffer" : 0,
            "byteLength" : 4428,
            "byteOffset" : 120600,
            "target" : 34962
        },
        {
            "buffer" : 0,
            "byteLength" : 4428,
            "byteOffset" : 125028,
            "target" : 34962
        },
        {
            "buffer" : 0,
            "byteLength" : 5904,
            "byteOffset" : 129456,
            "target" : 34962
        },
        {
            "buffer" : 0,
            "byteLength" : 2952,
            "byteOffset" : 135360,
            "target" : 34962
        }
    ],
    "buffers" : [
        {
            "byteLength" : 138312,
            "uri" : "obj.bin"
        }
    ],
    "images" : [
        {
            "name" : "ornament_1",
            "uri" : "ornament_1.png"
        }
    ],
    "materials" : [
        {
            "name" : "ornament_1",
            "pbrMetallicRoughness" : {
                "baseColorFactor" : [
                    0.800000011920929,
                    0.800000011920929,
                    0.800000011920929,
                    1.0
                ],
                "baseColorTexture" : {
                    "index" : 0
                },
                "metallicFactor" : 0.0
            }
        }
    ],
    "meshes" : [
        {
            "name" : "Mesh.004",
            "primitives" : [
                {
                    "attributes" : {
                        "NORMAL" : 2,
                        "POSITION" : 1,
                        "TANGENT" : 3,
                        "TEXCOORD_0" : 4
                    },
                    "indices" : 0,
                    "material" : 0
                }
            ]
        },
        {
            "name" : "Mesh.002",
            "primitives" : [
                {
                    "attributes" : {
                        "NORMAL" : 7,
                        "POSITION" : 6,
                        "TANGENT" : 8,
                        "TEXCOORD_0" : 9
                    },
                    "indices" : 5,
                    "material" : 0
                }
            ]
        },
        {
            "name" : "Torus.010",
            "primitives" : [
                {
                    "attributes" : {
                        "NORMAL" : 12,
                        "POSITION" : 11,
                        "TANGENT" : 13,
                        "TEXCOORD_0" : 14
                    },
                    "indices" : 10,
                    "material" : 0
                }
            ]
        }
    ],
    "nodes" : [
        {
            "mesh" : 1,
            "name" : "Mball.000",
            "rotation" : [
                0.11962533742189407,
                -0.7017308473587036,
                -0.08553022891283035,
                0.6970998048782349
            ],
            "scale" : [
                0.013825295493006706,
                0.0028014988638460636,
                0.0033804087433964014
            ],
            "translation" : [
                -0.0925920158624649,
                0.06844916194677353,
                0.05975761264562607
            ]
        },
        {
            "mesh" : 0,
            "name" : "Mball.001",
            "rotation" : [
                0.06930115073919296,
                -0.6725991368293762,
                -0.06350278109312057,
                0.7340130805969238
            ],
            "scale" : [
                0.00294097070582211,
                0.00294097070582211,
                0.002940970240160823
            ],
            "translation" : [
                -0.09229713678359985,
                0.06332966685295105,
                0.08010508865118027
            ]
        },
        {
            "mesh" : 2,
            "name" : "Torus.005",
            "rotation" : [
                0.7071068286895752,
                0.0,
                -0.0,
                0.7071068286895752
            ],
            "scale" : [
                0.028173327445983887,
                0.0129365473985672,
                0.028173327445983887
            ],
            "translation" : [
                -0.04317989945411682,
                0.0900840014219284,
                0.10434463620185852
            ]
        }
    ],
    "samplers" : [
        {}
    ],
    "scene" : 0,
    "scenes" : [
        {
            "name" : "GS01",
            "nodes" : [
                2,
                0,
                1
            ]
        },
        {
            "name" : "GS02"
        },
        {
            "name" : "GS03"
        },
        {
            "name" : "GS05"
        },
        {
            "name" : "Scene"
        }
    ],
    "textures" : [
        {
            "sampler" : 0,
            "source" : 0
        }
    ]
}
