<svg xmlns="http://www.w3.org/2000/svg" xmlns:xlink="http://www.w3.org/1999/xlink" width="26" height="26" preserveAspectRatio="xMidYMid meet" viewBox="0 0 26 26" style="-ms-transform: rotate(360deg); -webkit-transform: rotate(360deg); transform: rotate(360deg);"><path d="M18 .188c-4.315 0-7.813 1.929-7.813 4.312S13.686 8.813 18 8.813c4.315 0 7.813-1.93 7.813-4.313S22.314.187 18 .187zm7.813 5.593c-.002 2.383-3.498 4.313-7.813 4.313-4.303 0-7.793-1.909-7.813-4.281V7.5c0 1.018.652 1.95 1.72 2.688 1.08.294 2.042.702 2.843 1.218.993.252 2.085.406 3.25.406 4.315 0 7.813-1.929 7.813-4.312V5.781zm0 3c0 2.383-3.498 4.313-7.813 4.313-.525 0-1.035-.039-1.531-.094a4.35 4.35 0 0 1 .781 1.781c.249.014.495.031.75.031 4.315 0 7.813-1.929 7.813-4.312V8.781zM8 11.187c-4.315 0-7.813 1.93-7.813 4.313S3.686 19.813 8 19.813c4.315 0 7.813-1.93 7.813-4.313S12.314 11.187 8 11.187zm17.813.594c-.002 2.383-3.498 4.313-7.813 4.313-.251 0-.505-.018-.75-.032-.011.075-.017.175-.031.25.05.151.093.3.093.47v1c.227.011.455.03.688.03 4.315 0 7.813-1.929 7.813-4.312v-1.719zm0 3c-.002 2.383-3.498 4.313-7.813 4.313-.251 0-.505-.018-.75-.032-.011.075-.017.175-.031.25.05.15.093.3.093.47v1c.227.011.455.03.688.03 4.315 0 7.813-1.929 7.813-4.312v-1.719zm-10 2c-.002 2.383-3.498 4.313-7.813 4.313-4.303 0-7.793-1.909-7.813-4.282V18.5c0 2.383 3.497 4.313 7.813 4.313s7.813-1.93 7.813-4.313v-1.719zm0 3c-.002 2.383-3.498 4.313-7.813 4.313-4.303 0-7.793-1.909-7.813-4.282V21.5c0 2.383 3.497 4.313 7.813 4.313s7.813-1.93 7.813-4.313v-1.719z" fill="#626262"/><rect x="0" y="0" width="26" height="26" fill="rgba(0, 0, 0, 0)" /></svg>