<svg xmlns="http://www.w3.org/2000/svg" xmlns:xlink="http://www.w3.org/1999/xlink" width="1000" height="1000" preserveAspectRatio="xMidYMid meet" viewBox="0 0 1000 1000" style="-ms-transform: rotate(360deg); -webkit-transform: rotate(360deg); transform: rotate(360deg);"><path d="M498.7 27.7c-39.3 0-70.9 32.1-70.9 72.24 0 40.16 31.6 72.16 70.9 72.16 39.3 0 73.5-32 73.5-72.16 0-40.14-34.2-72.24-73.5-72.24zm-48.4 222.1C410.6 369 349.5 401.5 349.5 401.5s-51.7-145.4-108.9-231.2c-23.3 51.5-46.8 86-96.3 99.3-.8 44.8 51.2 208.8 55.7 290.7h600c2.5-78.9 55.8-256.2 55.8-288.7-38.4-15.3-85-50.8-96.3-101.3-63.2 85.8-109 231.2-109 231.2s-61-32.5-100.7-151.7c-26.9 13.1-77.8 13.4-99.5 0zM153.1 27.7c-39.4 0-73.55 32.13-73.55 72.3 0 39.9 34.15 72.1 73.55 72.1 39.2 0 70.8-32.2 70.8-72.1 0-40.17-31.6-72.3-70.8-72.3zm47.1 603.1v118.9h600V630.8zM844.3 27.7c-40.1 0-72.1 32.13-72.1 72.4 0 39.8 32 72 72.1 72 40.3 0 72.3-32.2 72.3-72 0-40.27-32-72.4-72.3-72.4z" fill="#626262"/><rect x="0" y="0" width="1000" height="1000" fill="rgba(0, 0, 0, 0)" /></svg>