<svg xmlns="http://www.w3.org/2000/svg" xmlns:xlink="http://www.w3.org/1999/xlink" width="24" height="24" preserveAspectRatio="xMidYMid meet" viewBox="0 0 24 24" style="-ms-transform: rotate(360deg); -webkit-transform: rotate(360deg); transform: rotate(360deg);"><path d="M21 16.5a1 1 0 0 1-.527.881l-7.907 4.443a.996.996 0 0 1-1.132 0l-7.907-4.443A1 1 0 0 1 3 16.5v-9a1 1 0 0 1 .527-.881l7.907-4.443a.995.995 0 0 1 1.132 0l7.907 4.443A1 1 0 0 1 21 7.5v9zM12 4.15L6.042 7.5l5.96 3.35 5.958-3.35-5.958-3.35zM5 15.916l6 3.372V12.58L5 9.209v6.706zm14 0V9.209l-6 3.372v6.707l6-3.373z" fill="#626262"/><rect x="0" y="0" width="24" height="24" fill="rgba(0, 0, 0, 0)" /></svg>