<svg xmlns="http://www.w3.org/2000/svg" xmlns:xlink="http://www.w3.org/1999/xlink" width="24" height="24" preserveAspectRatio="xMidYMid meet" viewBox="0 0 24 24" style="-ms-transform: rotate(360deg); -webkit-transform: rotate(360deg); transform: rotate(360deg);"><path d="M12 3C7.582 3 4 4.79 4 7s3.582 4 8 4 8-1.79 8-4-3.582-4-8-4zM4 9v3c0 2.21 3.582 4 8 4s8-1.79 8-4V9c0 2.21-3.582 4-8 4s-8-1.79-8-4zm0 5v3c0 2.21 3.582 4 8 4s8-1.79 8-4v-3c0 2.21-3.582 4-8 4s-8-1.79-8-4z" fill="#626262"/><rect x="0" y="0" width="24" height="24" fill="rgba(0, 0, 0, 0)" /></svg>