<svg xmlns="http://www.w3.org/2000/svg" xmlns:xlink="http://www.w3.org/1999/xlink" width="42" height="32" preserveAspectRatio="xMidYMid meet" viewBox="0 0 42 32" style="-ms-transform: rotate(360deg); -webkit-transform: rotate(360deg); transform: rotate(360deg);"><path fill="#626262" d="M39 0c-1.654 0-3 1.346-3 3 0 .888.396 1.679 1.011 2.229l-8.8 14.031A2.972 2.972 0 0 0 27 19c-.868 0-1.644.376-2.193.967l-9.073-5.745c.168-.374.266-.786.266-1.222 0-1.654-1.346-3-3-3s-3 1.346-3 3c0 .904.41 1.706 1.044 2.256L4.149 26.231A2.972 2.972 0 0 0 3 26c-1.654 0-3 1.346-3 3s1.346 3 3 3 3-1.346 3-3c0-.888-.395-1.678-1.01-2.228l6.904-10.99c.343.138.715.218 1.106.218.859 0 1.629-.367 2.176-.947l9.078 5.748A2.981 2.981 0 0 0 24 22c0 1.654 1.346 3 3 3s3-1.346 3-3c0-.863-.371-1.636-.957-2.184l8.81-14.046c.354.147.741.23 1.147.23 1.654 0 3-1.346 3-3s-1.346-3-3-3zM5 29c0 1.103-.897 2-2 2s-2-.897-2-2 .897-2 2-2 2 .897 2 2zm8-14c-1.103 0-2-.897-2-2s.897-2 2-2 2 .897 2 2-.897 2-2 2zm14 9c-1.103 0-2-.897-2-2s.897-2 2-2 2 .897 2 2-.897 2-2 2zM39 5c-1.103 0-2-.897-2-2s.897-2 2-2 2 .897 2 2-.897 2-2 2z"/><rect x="0" y="0" width="42" height="32" fill="rgba(0, 0, 0, 0)" /></svg>