<svg xmlns="http://www.w3.org/2000/svg" xmlns:xlink="http://www.w3.org/1999/xlink" width="8" height="8" preserveAspectRatio="xMidYMid meet" viewBox="0 0 8 8" style="-ms-transform: rotate(360deg); -webkit-transform: rotate(360deg); transform: rotate(360deg);"><path d="M0 0v4h1V0H0zm2 0v4c.28 0 .53.09.72.28.19.19 1.15 2.12 1.28 2.38.13.26.39.39.66.31.26-.08.4-.36.31-.63-.08-.26-.47-1.59-.47-1.84S4.72 4 5 4h1.5c.28 0 .5-.22.5-.5S5.97.31 5.97.31A.518.518 0 0 0 5.5 0H2z" fill="#626262"/><rect x="0" y="0" width="8" height="8" fill="rgba(0, 0, 0, 0)" /></svg>