<svg xmlns="http://www.w3.org/2000/svg" xmlns:xlink="http://www.w3.org/1999/xlink" width="32" height="32" preserveAspectRatio="xMidYMid meet" viewBox="0 0 32 32" style="-ms-transform: rotate(360deg); -webkit-transform: rotate(360deg); transform: rotate(360deg);"><g fill="#626262"><path d="M16-.034C7.158-.034-.034 7.158-.034 16S7.158 32.034 16 32.034 32.034 24.842 32.034 16 24.842-.034 16-.034zm0 31C7.748 30.966 1.034 24.252 1.034 16S7.748 1.034 16 1.034 30.966 7.748 30.966 16 24.252 30.966 16 30.966z"/><path d="M20.498 12H17V8.499c.033-.295-.206-.534-.501-.534H13.92c-.27 0-.497.2-.53.469-.095.763-.266 1.389-.507 1.863a3.88 3.88 0 0 1-.95 1.209c-.321.273-.873.542-1.595.775a.471.471 0 0 0-.338.509v2.709a.449.449 0 0 0 .502.501L12 17v4.668c-.034-.301.037-.097.176.231l.059.142c.005.013.512 1.273 1.122 1.799.45.386.995.686 1.62.892a5.466 5.466 0 0 0 1.891.302c.682 0 1.327-.069 1.92-.207a9.447 9.447 0 0 0 1.938-.677.457.457 0 0 0 .274-.483v-2.405c.032-.196-.075-.377-.248-.471s-.383-.084-.548.024c-.705.463-1.083.546-1.796.546-.332 0-.62-.068-.881-.211-.105-.191-.257-.778-.315-1.009a6.12 6.12 0 0 0-.126-.443c-.055-.146-.055-.668-.054-1.272L17.033 16h3.465a.449.449 0 0 0 .502-.501v-3a.447.447 0 0 0-.502-.499zm-.534 3h-3.465a.443.443 0 0 0-.499.499l-.002 2.924c-.036.853-.036 1.322.087 1.65.023.061.053.184.092.334.254.989.414 1.434.743 1.627.438.262.938.395 1.488.395.573 0 1.033-.05 1.556-.269v1.16a8.423 8.423 0 0 1-1.42.465 7.44 7.44 0 0 1-1.677.18 4.389 4.389 0 0 1-1.558-.249 3.703 3.703 0 0 1-1.257-.688c-.272-.234-.654-.954-.825-1.383l-.066-.161c-.095-.225-.127-.301-.161-.816v-5.169c.034-.295-.205-.534-.5-.534h-1.464v-1.794c.688-.251 1.221-.537 1.589-.852a4.918 4.918 0 0 0 1.211-1.538c.243-.479.426-1.064.545-1.748h1.584v3.466c0 .295.239.534.534.501h3.465v2z"/></g><rect x="0" y="0" width="32" height="32" fill="rgba(0, 0, 0, 0)" /></svg>