{
    "accessors" : [
        {
            "bufferView" : 0,
            "componentType" : 5123,
            "count" : 288,
            "max" : [
                64
            ],
            "min" : [
                0
            ],
            "type" : "SCALAR"
        },
        {
            "bufferView" : 1,
            "componentType" : 5126,
            "count" : 65,
            "max" : [
                0.38268375396728516,
                -0.7247533798217773,
                0.38268330693244934
            ],
            "min" : [
                -0.38268327713012695,
                -2.3816747665405273,
                -0.38268351554870605
            ],
            "type" : "VEC3"
        },
        {
            "bufferView" : 2,
            "componentType" : 5126,
            "count" : 65,
            "max" : [
                0.9728995561599731,
                -0.2311471849679947,
                0.9728995561599731
            ],
            "min" : [
                -0.9728995561599731,
                -1.0,
                -0.9728995561599731
            ],
            "type" : "VEC3"
        },
        {
            "bufferView" : 3,
            "componentType" : 5123,
            "count" : 2592,
            "max" : [
                448
            ],
            "min" : [
                0
            ],
            "type" : "SCALAR"
        },
        {
            "bufferView" : 4,
            "componentType" : 5126,
            "count" : 449,
            "max" : [
                1.1251417398452759,
                0.19509035348892212,
                1.1251411437988281
            ],
            "min" : [
                -1.1251416206359863,
                -1.2594647407531738,
                -1.1251417398452759
            ],
            "type" : "VEC3"
        },
        {
            "bufferView" : 5,
            "componentType" : 5126,
            "count" : 449,
            "max" : [
                0.9981994032859802,
                1.0,
                0.9981994032859802
            ],
            "min" : [
                -0.9981994032859802,
                -0.999298095703125,
                -0.9981994032859802
            ],
            "type" : "VEC3"
        }
    ],
    "asset" : {
        "generator" : "Khronos Blender glTF 2.0 exporter",
        "version" : "2.0"
    },
    "bufferViews" : [
        {
            "buffer" : 0,
            "byteLength" : 576,
            "byteOffset" : 0,
            "target" : 34963
        },
        {
            "buffer" : 0,
            "byteLength" : 780,
            "byteOffset" : 576,
            "target" : 34962
        },
        {
            "buffer" : 0,
            "byteLength" : 780,
            "byteOffset" : 1356,
            "target" : 34962
        },
        {
            "buffer" : 0,
            "byteLength" : 5184,
            "byteOffset" : 2136,
            "target" : 34963
        },
        {
            "buffer" : 0,
            "byteLength" : 5388,
            "byteOffset" : 7320,
            "target" : 34962
        },
        {
            "buffer" : 0,
            "byteLength" : 5388,
            "byteOffset" : 12708,
            "target" : 34962
        }
    ],
    "buffers" : [
        {
            "byteLength" : 18096,
            "uri" : "amazon_shield.bin"
        }
    ],
    "materials" : [
        {
            "name" : "bgmain1",
            "pbrMetallicRoughness" : {
                "baseColorFactor" : [
                    0.26745877664474804,
                    0.13738404717123576,
                    0.010751525472872336,
                    1.0
                ],
                "metallicFactor" : 0.0
            }
        },
        {
            "name" : "center2",
            "pbrMetallicRoughness" : {
                "baseColorFactor" : [
                    0.0,
                    0.0,
                    0.0,
                    1.0
                ],
                "metallicFactor" : 0.0
            }
        }
    ],
    "meshes" : [
        {
            "name" : "Sphere.002",
            "primitives" : [
                {
                    "attributes" : {
                        "NORMAL" : 2,
                        "POSITION" : 1
                    },
                    "indices" : 0,
                    "material" : 0
                },
                {
                    "attributes" : {
                        "NORMAL" : 5,
                        "POSITION" : 4
                    },
                    "indices" : 3,
                    "material" : 1
                }
            ]
        }
    ],
    "nodes" : [
        {
            "mesh" : 0,
            "name" : "amazon_shield",
            "rotation" : [
                -0.0,
                1.0,
                0.0,
                0.0
            ],
            "scale" : [
                -0.14092525839805603,
                -0.01663246937096119,
                -0.10227768868207932
            ],
            "translation" : [
                0.0,
                0.04133259132504463,
                -0.0
            ]
        }
    ],
    "scene" : 0,
    "scenes" : [
        {
            "name" : "Scene",
            "nodes" : [
                0
            ]
        }
    ]
}
