{
    "accessors" : [
        {
            "bufferView" : 0,
            "componentType" : 5123,
            "count" : 1620,
            "max" : [
                271
            ],
            "min" : [
                0
            ],
            "type" : "SCALAR"
        },
        {
            "bufferView" : 1,
            "componentType" : 5126,
            "count" : 272,
            "max" : [
                2.1151092052459717,
                1.1333107948303223,
                1.1333107948303223
            ],
            "min" : [
                -2.1151092052459717,
                -1.1333107948303223,
                -1.1333107948303223
            ],
            "type" : "VEC3"
        },
        {
            "bufferView" : 2,
            "componentType" : 5126,
            "count" : 272,
            "max" : [
                0.9665822386741638,
                0.9848322868347168,
                0.9848322868347168
            ],
            "min" : [
                -0.9665822386741638,
                -0.9848322868347168,
                -0.9848322868347168
            ],
            "type" : "VEC3"
        },
        {
            "bufferView" : 3,
            "componentType" : 5123,
            "count" : 372,
            "max" : [
                63
            ],
            "min" : [
                0
            ],
            "type" : "SCALAR"
        },
        {
            "bufferView" : 4,
            "componentType" : 5126,
            "count" : 64,
            "max" : [
                1.0,
                1.0,
                1.0
            ],
            "min" : [
                -1.0,
                -1.0,
                -1.0
            ],
            "type" : "VEC3"
        },
        {
            "bufferView" : 5,
            "componentType" : 5126,
            "count" : 64,
            "max" : [
                0.7278664708137512,
                0.6856898665428162,
                0.7278664708137512
            ],
            "min" : [
                -0.7278664708137512,
                -0.6856898665428162,
                -0.7278664708137512
            ],
            "type" : "VEC3"
        },
        {
            "bufferView" : 6,
            "componentType" : 5123,
            "count" : 96,
            "max" : [
                57
            ],
            "min" : [
                0
            ],
            "type" : "SCALAR"
        },
        {
            "bufferView" : 7,
            "componentType" : 5126,
            "count" : 58,
            "max" : [
                10.819564819335938,
                5.933633804321289,
                2.835803508758545
            ],
            "min" : [
                -2.2857813835144043,
                -1.0,
                -2.7591404914855957
            ],
            "type" : "VEC3"
        },
        {
            "bufferView" : 8,
            "componentType" : 5126,
            "count" : 58,
            "max" : [
                1.0,
                1.0,
                1.0
            ],
            "min" : [
                -1.0,
                -1.0,
                -1.0
            ],
            "type" : "VEC3"
        }
    ],
    "asset" : {
        "generator" : "Khronos Blender glTF 2.0 exporter",
        "version" : "2.0"
    },
    "bufferViews" : [
        {
            "buffer" : 0,
            "byteLength" : 3240,
            "byteOffset" : 0,
            "target" : 34963
        },
        {
            "buffer" : 0,
            "byteLength" : 3264,
            "byteOffset" : 3240,
            "target" : 34962
        },
        {
            "buffer" : 0,
            "byteLength" : 3264,
            "byteOffset" : 6504,
            "target" : 34962
        },
        {
            "buffer" : 0,
            "byteLength" : 744,
            "byteOffset" : 9768,
            "target" : 34963
        },
        {
            "buffer" : 0,
            "byteLength" : 768,
            "byteOffset" : 10512,
            "target" : 34962
        },
        {
            "buffer" : 0,
            "byteLength" : 768,
            "byteOffset" : 11280,
            "target" : 34962
        },
        {
            "buffer" : 0,
            "byteLength" : 192,
            "byteOffset" : 12048,
            "target" : 34963
        },
        {
            "buffer" : 0,
            "byteLength" : 696,
            "byteOffset" : 12240,
            "target" : 34962
        },
        {
            "buffer" : 0,
            "byteLength" : 696,
            "byteOffset" : 12936,
            "target" : 34962
        }
    ],
    "buffers" : [
        {
            "byteLength" : 13632,
            "uri" : "hachet.bin"
        }
    ],
    "materials" : [
        {
            "name" : "blade",
            "pbrMetallicRoughness" : {
                "baseColorFactor" : [
                    0.800000011920929,
                    0.7512704484354025,
                    0.7603193873214629,
                    1.0
                ],
                "metallicFactor" : 0.0
            }
        },
        {
            "name" : "rguard",
            "pbrMetallicRoughness" : {
                "baseColorFactor" : [
                    0.640000066757203,
                    0.3098168896111382,
                    0.0,
                    1.0
                ],
                "metallicFactor" : 0.0
            }
        }
    ],
    "meshes" : [
        {
            "name" : "Mesh.001",
            "primitives" : [
                {
                    "attributes" : {
                        "NORMAL" : 2,
                        "POSITION" : 1
                    },
                    "indices" : 0
                }
            ]
        },
        {
            "name" : "Cylinder.003",
            "primitives" : [
                {
                    "attributes" : {
                        "NORMAL" : 5,
                        "POSITION" : 4
                    },
                    "indices" : 3,
                    "material" : 1
                }
            ]
        },
        {
            "name" : "Cube.014",
            "primitives" : [
                {
                    "attributes" : {
                        "NORMAL" : 8,
                        "POSITION" : 7
                    },
                    "indices" : 6,
                    "material" : 0
                }
            ]
        }
    ],
    "nodes" : [
        {
            "mesh" : 2,
            "name" : "blade_hachet",
            "rotation" : [
                -5.746085918190147e-08,
                0.7088249921798706,
                5.7741122105881004e-08,
                0.7053844332695007
            ],
            "scale" : [
                0.011311212554574013,
                0.08740811794996262,
                0.004860738757997751
            ],
            "translation" : [
                0.0,
                0.11185522377490997,
                -0.0
            ]
        },
        {
            "mesh" : 0,
            "name" : "grip_capsule",
            "rotation" : [
                2.669255216858346e-08,
                -2.669255039222662e-08,
                -0.7071068286895752,
                0.7071068286895752
            ],
            "scale" : [
                0.01759249158203602,
                0.015772398561239243,
                0.013727003708481789
            ]
        },
        {
            "mesh" : 1,
            "name" : "rguard_circle",
            "rotation" : [
                -8.146034247147327e-08,
                0.0,
                -0.0,
                1.0
            ],
            "scale" : [
                0.06940513104200363,
                0.01125298161059618,
                0.06940513104200363
            ],
            "translation" : [
                0.0,
                0.04350176453590393,
                -0.0
            ]
        }
    ],
    "scene" : 0,
    "scenes" : [
        {
            "name" : "Scene",
            "nodes" : [
                1,
                0,
                2
            ]
        }
    ]
}
