{
    "accessors" : [
        {
            "bufferView" : 0,
            "componentType" : 5123,
            "count" : 2592,
            "max" : [
                448
            ],
            "min" : [
                0
            ],
            "type" : "SCALAR"
        },
        {
            "bufferView" : 1,
            "componentType" : 5126,
            "count" : 449,
            "max" : [
                1.0000001192092896,
                0.19509035348892212,
                0.9999995827674866
            ],
            "min" : [
                -1.0,
                -1.351874589920044,
                -1.0000001192092896
            ],
            "type" : "VEC3"
        },
        {
            "bufferView" : 2,
            "componentType" : 5126,
            "count" : 449,
            "max" : [
                1.0,
                1.0,
                1.0
            ],
            "min" : [
                -1.0,
                -0.921689510345459,
                -0.999969482421875
            ],
            "type" : "VEC3"
        },
        {
            "bufferView" : 3,
            "componentType" : 5123,
            "count" : 288,
            "max" : [
                64
            ],
            "min" : [
                0
            ],
            "type" : "SCALAR"
        },
        {
            "bufferView" : 4,
            "componentType" : 5126,
            "count" : 65,
            "max" : [
                0.38268375396728516,
                -1.351874589920044,
                0.38268330693244934
            ],
            "min" : [
                -0.38268327713012695,
                -1.427994966506958,
                -0.38268351554870605
            ],
            "type" : "VEC3"
        },
        {
            "bufferView" : 5,
            "componentType" : 5126,
            "count" : 65,
            "max" : [
                0.3878597319126129,
                -0.921689510345459,
                0.3878597319126129
            ],
            "min" : [
                -0.3878597319126129,
                -1.0,
                -0.3878597319126129
            ],
            "type" : "VEC3"
        }
    ],
    "asset" : {
        "generator" : "Khronos Blender glTF 2.0 exporter",
        "version" : "2.0"
    },
    "bufferViews" : [
        {
            "buffer" : 0,
            "byteLength" : 5184,
            "byteOffset" : 0,
            "target" : 34963
        },
        {
            "buffer" : 0,
            "byteLength" : 5388,
            "byteOffset" : 5184,
            "target" : 34962
        },
        {
            "buffer" : 0,
            "byteLength" : 5388,
            "byteOffset" : 10572,
            "target" : 34962
        },
        {
            "buffer" : 0,
            "byteLength" : 576,
            "byteOffset" : 15960,
            "target" : 34963
        },
        {
            "buffer" : 0,
            "byteLength" : 780,
            "byteOffset" : 16536,
            "target" : 34962
        },
        {
            "buffer" : 0,
            "byteLength" : 780,
            "byteOffset" : 17316,
            "target" : 34962
        }
    ],
    "buffers" : [
        {
            "byteLength" : 18096,
            "uri" : "simple_shield.bin"
        }
    ],
    "materials" : [
        {
            "name" : "azure",
            "pbrMetallicRoughness" : {
                "baseColorFactor" : [
                    0.0,
                    0.0,
                    0.0,
                    1.0
                ],
                "metallicFactor" : 0.0
            }
        },
        {
            "name" : "brown",
            "pbrMetallicRoughness" : {
                "baseColorFactor" : [
                    0.26745877664474804,
                    0.13738404717123576,
                    0.010751525472872336,
                    1.0
                ],
                "metallicFactor" : 0.0
            }
        }
    ],
    "meshes" : [
        {
            "name" : "Sphere",
            "primitives" : [
                {
                    "attributes" : {
                        "NORMAL" : 2,
                        "POSITION" : 1
                    },
                    "indices" : 0,
                    "material" : 1
                },
                {
                    "attributes" : {
                        "NORMAL" : 5,
                        "POSITION" : 4
                    },
                    "indices" : 3,
                    "material" : 0
                }
            ]
        }
    ],
    "nodes" : [
        {
            "mesh" : 0,
            "name" : "Sphere",
            "rotation" : [
                -0.0,
                1.0,
                0.0,
                0.0
            ],
            "scale" : [
                -0.14092525839805603,
                -0.01663246937096119,
                -0.14092525839805603
            ],
            "translation" : [
                0.0,
                0.04133259132504463,
                -0.0
            ]
        }
    ],
    "scene" : 0,
    "scenes" : [
        {
            "name" : "Scene",
            "nodes" : [
                0
            ]
        }
    ]
}
