{
    "accessors" : [
        {
            "bufferView" : 0,
            "componentType" : 5123,
            "count" : 372,
            "max" : [
                63
            ],
            "min" : [
                0
            ],
            "type" : "SCALAR"
        },
        {
            "bufferView" : 1,
            "componentType" : 5126,
            "count" : 64,
            "max" : [
                0.6747826337814331,
                0.6747826337814331,
                0.6747825741767883
            ],
            "min" : [
                -0.6747825741767883,
                -0.6747826337814331,
                -0.6747827529907227
            ],
            "type" : "VEC3"
        },
        {
            "bufferView" : 2,
            "componentType" : 5126,
            "count" : 64,
            "max" : [
                0.7278664708137512,
                0.6856898665428162,
                0.7278664708137512
            ],
            "min" : [
                -0.7278664708137512,
                -0.6856898665428162,
                -0.7278664708137512
            ],
            "type" : "VEC3"
        },
        {
            "bufferView" : 3,
            "componentType" : 5123,
            "count" : 36,
            "max" : [
                23
            ],
            "min" : [
                0
            ],
            "type" : "SCALAR"
        },
        {
            "bufferView" : 4,
            "componentType" : 5126,
            "count" : 24,
            "max" : [
                0.9992645382881165,
                0.5339068174362183,
                0.9992647171020508
            ],
            "min" : [
                -1.0007355213165283,
                -0.5339068174362183,
                -1.0007355213165283
            ],
            "type" : "VEC3"
        },
        {
            "bufferView" : 5,
            "componentType" : 5126,
            "count" : 24,
            "max" : [
                0.8718723654747009,
                1.0,
                0.8718723654747009
            ],
            "min" : [
                -0.8734561204910278,
                -1.0,
                -0.8734561204910278
            ],
            "type" : "VEC3"
        },
        {
            "bufferView" : 6,
            "componentType" : 5123,
            "count" : 60,
            "max" : [
                39
            ],
            "min" : [
                0
            ],
            "type" : "SCALAR"
        },
        {
            "bufferView" : 7,
            "componentType" : 5126,
            "count" : 40,
            "max" : [
                0.6495932340621948,
                1.5513523817062378,
                0.6507222056388855
            ],
            "min" : [
                -0.6507222652435303,
                -1.1975781917572021,
                -0.6495932936668396
            ],
            "type" : "VEC3"
        },
        {
            "bufferView" : 8,
            "componentType" : 5126,
            "count" : 40,
            "max" : [
                0.851485013961792,
                1.0,
                0.8514850735664368
            ],
            "min" : [
                -0.8514849543571472,
                -1.0,
                -0.8514850735664368
            ],
            "type" : "VEC3"
        }
    ],
    "asset" : {
        "generator" : "Khronos Blender glTF 2.0 exporter",
        "version" : "2.0"
    },
    "bufferViews" : [
        {
            "buffer" : 0,
            "byteLength" : 744,
            "byteOffset" : 0,
            "target" : 34963
        },
        {
            "buffer" : 0,
            "byteLength" : 768,
            "byteOffset" : 744,
            "target" : 34962
        },
        {
            "buffer" : 0,
            "byteLength" : 768,
            "byteOffset" : 1512,
            "target" : 34962
        },
        {
            "buffer" : 0,
            "byteLength" : 72,
            "byteOffset" : 2280,
            "target" : 34963
        },
        {
            "buffer" : 0,
            "byteLength" : 288,
            "byteOffset" : 2352,
            "target" : 34962
        },
        {
            "buffer" : 0,
            "byteLength" : 288,
            "byteOffset" : 2640,
            "target" : 34962
        },
        {
            "buffer" : 0,
            "byteLength" : 120,
            "byteOffset" : 2928,
            "target" : 34963
        },
        {
            "buffer" : 0,
            "byteLength" : 480,
            "byteOffset" : 3048,
            "target" : 34962
        },
        {
            "buffer" : 0,
            "byteLength" : 480,
            "byteOffset" : 3528,
            "target" : 34962
        }
    ],
    "buffers" : [
        {
            "byteLength" : 4008,
            "uri" : "simple_sword.bin"
        }
    ],
    "materials" : [
        {
            "name" : "blade",
            "pbrMetallicRoughness" : {
                "baseColorFactor" : [
                    0.800000011920929,
                    0.7512704484354025,
                    0.7603193873214629,
                    1.0
                ],
                "metallicFactor" : 0.0
            }
        },
        {
            "name" : "grip",
            "pbrMetallicRoughness" : {
                "baseColorFactor" : [
                    0.640000066757203,
                    0.0,
                    0.002034074470908559,
                    1.0
                ],
                "metallicFactor" : 0.0
            }
        },
        {
            "name" : "rguard",
            "pbrMetallicRoughness" : {
                "baseColorFactor" : [
                    0.640000066757203,
                    0.3098168896111382,
                    0.0,
                    1.0
                ],
                "metallicFactor" : 0.0
            }
        }
    ],
    "meshes" : [
        {
            "name" : "Cylinder",
            "primitives" : [
                {
                    "attributes" : {
                        "NORMAL" : 2,
                        "POSITION" : 1
                    },
                    "indices" : 0,
                    "material" : 1
                }
            ]
        },
        {
            "name" : "Cube.001",
            "primitives" : [
                {
                    "attributes" : {
                        "NORMAL" : 5,
                        "POSITION" : 4
                    },
                    "indices" : 3,
                    "material" : 2
                }
            ]
        },
        {
            "name" : "Cube.020",
            "primitives" : [
                {
                    "attributes" : {
                        "NORMAL" : 8,
                        "POSITION" : 7
                    },
                    "indices" : 6,
                    "material" : 0
                }
            ]
        }
    ],
    "nodes" : [
        {
            "mesh" : 2,
            "name" : "blade_",
            "rotation" : [
                0.0,
                -0.3826833963394165,
                -0.0,
                0.9238795638084412
            ],
            "scale" : [
                0.04681229218840599,
                0.23640555143356323,
                0.04681228846311569
            ],
            "translation" : [
                0.0,
                0.3366154432296753,
                -0.0
            ]
        },
        {
            "mesh" : 0,
            "name" : "grip_normal",
            "rotation" : [
                -3.251895641653846e-09,
                0.7071067094802856,
                -0.0,
                0.7071068286895752
            ],
            "scale" : [
                0.02757318876683712,
                0.046777646988630295,
                0.02757318876683712
            ],
            "translation" : [
                0.0,
                0.00470227375626564,
                -0.0
            ]
        },
        {
            "mesh" : 1,
            "name" : "rguard_normal",
            "rotation" : [
                4.378792439752033e-09,
                0.3826834261417389,
                -2.403393519154217e-16,
                0.9238795638084412
            ],
            "scale" : [
                0.0688716471195221,
                0.023996323347091675,
                0.0688716471195221
            ],
            "translation" : [
                5.016583070360136e-17,
                0.04243940860033035,
                2.508291535180068e-17
            ]
        }
    ],
    "scene" : 0,
    "scenes" : [
        {
            "name" : "Scene",
            "nodes" : [
                0,
                2,
                1
            ]
        }
    ]
}
