<svg xmlns="http://www.w3.org/2000/svg" xmlns:xlink="http://www.w3.org/1999/xlink" width="610" height="700" preserveAspectRatio="xMidYMid meet" viewBox="0 0 610 700" style="-ms-transform: rotate(360deg); -webkit-transform: rotate(360deg); transform: rotate(360deg);"><path d="M371 229q0 29-20 49t-50 20-49-20-20-49 20-50 49-20 50 20 20 50zm-232 0q0 29-20 49t-50 20-49-20-20-49 20-50 49-20 50 20 20 50zm463 0q0 29-20 49t-49 20-49-20-21-49 21-50 49-20 49 20 20 50z" fill="#626262"/><rect x="0" y="0" width="610" height="700" fill="rgba(0, 0, 0, 0)" /></svg>