<svg xmlns="http://www.w3.org/2000/svg" xmlns:xlink="http://www.w3.org/1999/xlink" width="740" height="850" preserveAspectRatio="xMidYMid meet" viewBox="0 0 740 850" style="-ms-transform: rotate(360deg); -webkit-transform: rotate(360deg); transform: rotate(360deg);"><path d="M372 182q41 0 77 15t63 42 42 63 15 77-15 76-42 63-63 42-77 16-77-16-62-42-42-63-16-76 16-77 42-63 62-42 77-15zm0 324q26 0 49-10t41-27 27-41 10-49-10-50-27-41-41-27-49-10-49 10-41 27-27 41-10 50 10 49 27 41 41 27 49 10zm368-314q9 187 0 374-2 36-17 68t-39 56-57 40-68 17q-47 2-93 3t-94 1-93-1-94-3q-36-2-68-17t-56-40-40-56-17-68q-8-187 0-374 2-36 17-68t40-57 56-39 68-17q187-9 374 0 36 2 68 17t57 39 39 57 17 68zm-70 370q9-183 0-367-1-22-11-42t-25-36-36-26-42-11q-46-2-92-3t-92-1-92 1-92 3q-22 1-42 11t-35 26-26 36-11 42q-9 184 0 368 1 22 11 42t26 35 35 26 42 11q184 9 368 0 22-1 42-11t36-26 25-36 11-42zM569 138q18 0 31 13t13 31-13 31-31 13-31-13-13-31 13-31 31-13z" fill="#626262"/><rect x="0" y="0" width="740" height="850" fill="rgba(0, 0, 0, 0)" /></svg>