<?xml version="1.0" encoding="UTF-8" standalone="no"?>
<svg
   xmlns:dc="http://purl.org/dc/elements/1.1/"
   xmlns:cc="http://creativecommons.org/ns#"
   xmlns:rdf="http://www.w3.org/1999/02/22-rdf-syntax-ns#"
   xmlns:svg="http://www.w3.org/2000/svg"
   xmlns="http://www.w3.org/2000/svg"
   id="svg8"
   version="1.1"
   viewBox="0 0 500 500"
   height="500mm"
   width="500mm">
  <defs
     id="defs2" />
  <metadata
     id="metadata5">
    <rdf:RDF>
      <cc:Work
         rdf:about="">
        <dc:format>image/svg+xml</dc:format>
        <dc:type
           rdf:resource="http://purl.org/dc/dcmitype/StillImage" />
        <dc:title></dc:title>
      </cc:Work>
    </rdf:RDF>
  </metadata>
  <g
     transform="translate(0,203)"
     id="layer1">
    <path
       id="path4545"
       d="M -0.35373977,47.466838 V -204.11463 H 251.228 502.80974 V 47.466838 299.0489 H 251.228 -0.35373977 Z"
       style="fill:#fffcc9;fill-opacity:1;stroke-width:0.71001965" />
    <path
       id="path4541"
       d="m 112.30431,294.22532 c -4.07256,-4.69679 -2.26269,-97.33469 2.10791,-107.89712 7.25006,-17.52043 31.3992,-35.37355 62.12075,-45.92438 80.83571,-27.76142 194.52229,-5.70669 218.29034,42.3475 4.72545,9.55373 5.01049,12.89903 5.01049,58.78633 0,26.76091 -0.61075,50.26271 -1.3568,52.22618 -1.21765,3.20446 -15.80685,3.56123 -142.49136,3.48395 -112.99518,-0.0674 -141.64252,-0.67117 -143.68133,-3.02246 z M 227.28895,103.39951 C 186.81127,90.330805 161.56267,47.361727 169.33465,4.7710869 c 3.74444,-20.5190599 11.1428,-34.1453109 25.96769,-47.8262039 21.23477,-19.596311 45.9588,-27.748422 71.29767,-23.508787 30.05494,5.028771 53.35235,22.40717 66.6772,49.736943 6.73008,13.8039154 7.32301,16.76908523 7.30183,36.512247 -0.0241,18.544286 -0.84283,23.261547 -6.00811,34.432752 -7.88873,17.06158 -15.725,27.154279 -28.34761,36.51032 -21.87442,16.213702 -52.783,21.214552 -78.93437,12.771152 z"
       style="fill:#ffcc00;stroke-width:0.63387477" />
  </g>
</svg>
