{
    "accessors" : [
        {
            "bufferView" : 0,
            "componentType" : 5123,
            "count" : 3828,
            "max" : [
                1311
            ],
            "min" : [
                0
            ],
            "type" : "SCALAR"
        },
        {
            "bufferView" : 1,
            "componentType" : 5126,
            "count" : 1312,
            "max" : [
                3.012860059738159,
                0.79615718126297,
                3.0128607749938965
            ],
            "min" : [
                -3.0128607749938965,
                -1.0,
                -3.01285982131958
            ],
            "type" : "VEC3"
        },
        {
            "bufferView" : 2,
            "componentType" : 5126,
            "count" : 1312,
            "max" : [
                1.0,
                0.999908447265625,
                0.999969482421875
            ],
            "min" : [
                -1.0,
                -0.9736014604568481,
                -1.0
            ],
            "type" : "VEC3"
        },
        {
            "bufferView" : 3,
            "componentType" : 5126,
            "count" : 1312,
            "max" : [
                1.0,
                1.0
            ],
            "min" : [
                0.0,
                0.0
            ],
            "type" : "VEC2"
        }
    ],
    "asset" : {
        "generator" : "Khronos Blender glTF 2.0 exporter",
        "version" : "2.0"
    },
    "bufferViews" : [
        {
            "buffer" : 0,
            "byteLength" : 7656,
            "byteOffset" : 0,
            "target" : 34963
        },
        {
            "buffer" : 0,
            "byteLength" : 15744,
            "byteOffset" : 7656,
            "target" : 34962
        },
        {
            "buffer" : 0,
            "byteLength" : 15744,
            "byteOffset" : 23400,
            "target" : 34962
        },
        {
            "buffer" : 0,
            "byteLength" : 10496,
            "byteOffset" : 39144,
            "target" : 34962
        }
    ],
    "buffers" : [
        {
            "byteLength" : 49640,
            "uri" : "obj.bin"
        }
    ],
    "images" : [
        {
            "name" : "blade",
            "uri" : "blade.png"
        }
    ],
    "materials" : [
        {
            "name" : "blade",
            "pbrMetallicRoughness" : {
                "baseColorFactor" : [
                    0.6400000190734865,
                    0.6400000190734865,
                    0.6400000190734865,
                    1.0
                ],
                "baseColorTexture" : {
                    "index" : 0
                },
                "metallicFactor" : 0.0
            }
        }
    ],
    "meshes" : [
        {
            "name" : "Cylinder.007",
            "primitives" : [
                {
                    "attributes" : {
                        "NORMAL" : 2,
                        "POSITION" : 1,
                        "TEXCOORD_0" : 3
                    },
                    "indices" : 0,
                    "material" : 0
                }
            ]
        }
    ],
    "nodes" : [
        {
            "mesh" : 0,
            "name" : "Cylinder.002",
            "scale" : [
                0.010417688637971878,
                0.3188813626766205,
                0.010417688637971878
            ],
            "translation" : [
                0.0,
                0.30627167224884033,
                -0.0
            ]
        }
    ],
    "samplers" : [
        {}
    ],
    "scene" : 1,
    "scenes" : [
        {
            "name" : "morning star"
        },
        {
            "name" : "other",
            "nodes" : [
                0
            ]
        },
        {
            "name" : "Scene"
        }
    ],
    "textures" : [
        {
            "sampler" : 0,
            "source" : 0
        }
    ]
}
