{
    "accessors" : [
        {
            "bufferView" : 0,
            "componentType" : 5123,
            "count" : 2880,
            "max" : [
                605
            ],
            "min" : [
                0
            ],
            "type" : "SCALAR"
        },
        {
            "bufferView" : 1,
            "componentType" : 5126,
            "count" : 606,
            "max" : [
                0.8030602335929871,
                0.9124108552932739,
                0.8030596971511841
            ],
            "min" : [
                -0.803059995174408,
                -1.3343037366867065,
                -0.8030600547790527
            ],
            "type" : "VEC3"
        },
        {
            "bufferView" : 2,
            "componentType" : 5126,
            "count" : 606,
            "max" : [
                0.99920654296875,
                1.0,
                0.99920654296875
            ],
            "min" : [
                -0.99920654296875,
                -0.999969482421875,
                -0.99920654296875
            ],
            "type" : "VEC3"
        },
        {
            "bufferView" : 3,
            "componentType" : 5126,
            "count" : 606,
            "max" : [
                0.9999006390571594,
                0.7793251276016235,
                0.9999985098838806,
                1.0
            ],
            "min" : [
                -0.9999985098838806,
                -0.8310174942016602,
                -0.997209370136261,
                1.0
            ],
            "type" : "VEC4"
        },
        {
            "bufferView" : 4,
            "componentType" : 5126,
            "count" : 606,
            "max" : [
                1.5887200832366943,
                1.5887199640274048
            ],
            "min" : [
                -0.5887200832366943,
                -0.5887199640274048
            ],
            "type" : "VEC2"
        }
    ],
    "asset" : {
        "generator" : "Khronos Blender glTF 2.0 exporter",
        "version" : "2.0"
    },
    "bufferViews" : [
        {
            "buffer" : 0,
            "byteLength" : 5760,
            "byteOffset" : 0,
            "target" : 34963
        },
        {
            "buffer" : 0,
            "byteLength" : 7272,
            "byteOffset" : 5760,
            "target" : 34962
        },
        {
            "buffer" : 0,
            "byteLength" : 7272,
            "byteOffset" : 13032,
            "target" : 34962
        },
        {
            "buffer" : 0,
            "byteLength" : 9696,
            "byteOffset" : 20304,
            "target" : 34962
        },
        {
            "buffer" : 0,
            "byteLength" : 4848,
            "byteOffset" : 30000,
            "target" : 34962
        }
    ],
    "buffers" : [
        {
            "byteLength" : 34848,
            "uri" : "lleg.bin"
        }
    ],
    "images" : [
        {
            "name" : "ornament_1",
            "uri" : "ornament_1.png"
        }
    ],
    "materials" : [
        {
            "name" : "ornament_1",
            "pbrMetallicRoughness" : {
                "baseColorFactor" : [
                    0.6400000190734865,
                    0.6400000190734865,
                    0.6400000190734865,
                    1.0
                ],
                "baseColorTexture" : {
                    "index" : 0
                },
                "metallicFactor" : 0.0
            }
        }
    ],
    "meshes" : [
        {
            "name" : "Sphere.059",
            "primitives" : [
                {
                    "attributes" : {
                        "NORMAL" : 2,
                        "POSITION" : 1,
                        "TANGENT" : 3,
                        "TEXCOORD_0" : 4
                    },
                    "indices" : 0,
                    "material" : 0
                }
            ]
        }
    ],
    "nodes" : [
        {
            "mesh" : 0,
            "name" : "Sphere.141",
            "rotation" : [
                6.150085577930715e-15,
                8.146035668232798e-08,
                -1.0,
                -7.549790126404332e-08
            ],
            "scale" : [
                0.04693702608346939,
                0.06895111501216888,
                0.04971766844391823
            ],
            "translation" : [
                0.0,
                0.05955754965543747,
                -0.0
            ]
        }
    ],
    "samplers" : [
        {}
    ],
    "scene" : 5,
    "scenes" : [
        {
            "name" : "new"
        },
        {
            "name" : "Scene"
        },
        {
            "name" : "Scene.001"
        },
        {
            "name" : "SU00"
        },
        {
            "name" : "SU01"
        },
        {
            "name" : "SU02",
            "nodes" : [
                0
            ]
        },
        {
            "name" : "SU03"
        },
        {
            "name" : "SU04"
        },
        {
            "name" : "SU05"
        },
        {
            "name" : "SU06"
        },
        {
            "name" : "SU07"
        },
        {
            "name" : "SU08"
        },
        {
            "name" : "SU09"
        },
        {
            "name" : "SU10"
        },
        {
            "name" : "Untitled"
        }
    ],
    "textures" : [
        {
            "sampler" : 0,
            "source" : 0
        }
    ]
}
