{
    "accessors" : [
        {
            "bufferView" : 0,
            "componentType" : 5123,
            "count" : 2304,
            "max" : [
                1118
            ],
            "min" : [
                0
            ],
            "type" : "SCALAR"
        },
        {
            "bufferView" : 1,
            "componentType" : 5126,
            "count" : 1119,
            "max" : [
                1.0,
                2.509119749069214,
                1.0
            ],
            "min" : [
                -1.0,
                -1.0,
                -1.0
            ],
            "type" : "VEC3"
        },
        {
            "bufferView" : 2,
            "componentType" : 5126,
            "count" : 1119,
            "max" : [
                1.0,
                1.0,
                1.0
            ],
            "min" : [
                -1.0,
                -1.0,
                -1.0
            ],
            "type" : "VEC3"
        },
        {
            "bufferView" : 3,
            "componentType" : 5126,
            "count" : 1119,
            "max" : [
                2.1578046016657026e-07,
                1.0,
                1.0,
                1.0
            ],
            "min" : [
                -1.0,
                -0.9865546226501465,
                -1.0,
                1.0
            ],
            "type" : "VEC4"
        },
        {
            "bufferView" : 4,
            "componentType" : 5126,
            "count" : 1119,
            "max" : [
                1.6675983667373657,
                1.543816864490509
            ],
            "min" : [
                -0.6675983667373657,
                -0.35840368270874023
            ],
            "type" : "VEC2"
        }
    ],
    "asset" : {
        "generator" : "Khronos Blender glTF 2.0 exporter",
        "version" : "2.0"
    },
    "bufferViews" : [
        {
            "buffer" : 0,
            "byteLength" : 4608,
            "byteOffset" : 0,
            "target" : 34963
        },
        {
            "buffer" : 0,
            "byteLength" : 13428,
            "byteOffset" : 4608,
            "target" : 34962
        },
        {
            "buffer" : 0,
            "byteLength" : 13428,
            "byteOffset" : 18036,
            "target" : 34962
        },
        {
            "buffer" : 0,
            "byteLength" : 17904,
            "byteOffset" : 31464,
            "target" : 34962
        },
        {
            "buffer" : 0,
            "byteLength" : 8952,
            "byteOffset" : 49368,
            "target" : 34962
        }
    ],
    "buffers" : [
        {
            "byteLength" : 58320,
            "uri" : "obj.bin"
        }
    ],
    "images" : [
        {
            "name" : "parkbench",
            "uri" : "parkbench.png"
        }
    ],
    "materials" : [
        {
            "name" : "parkbench",
            "pbrMetallicRoughness" : {
                "baseColorFactor" : [
                    0.6400000190734865,
                    0.6400000190734865,
                    0.6400000190734865,
                    1.0
                ],
                "baseColorTexture" : {
                    "index" : 0
                },
                "metallicFactor" : 0.0
            }
        }
    ],
    "meshes" : [
        {
            "name" : "Cube.080",
            "primitives" : [
                {
                    "attributes" : {
                        "NORMAL" : 2,
                        "POSITION" : 1,
                        "TANGENT" : 3,
                        "TEXCOORD_0" : 4
                    },
                    "indices" : 0,
                    "material" : 0
                }
            ]
        }
    ],
    "nodes" : [
        {
            "mesh" : 0,
            "name" : "Cube.052",
            "rotation" : [
                0.0,
                1.0,
                -0.0,
                -7.549790126404332e-08
            ],
            "scale" : [
                1.9103033542633057,
                0.2495552897453308,
                0.4305131137371063
            ],
            "translation" : [
                0.0,
                0.29250937700271606,
                -0.0
            ]
        }
    ],
    "samplers" : [
        {}
    ],
    "scene" : 4,
    "scenes" : [
        {
            "name" : "cetak"
        },
        {
            "name" : "general"
        },
        {
            "name" : "hair"
        },
        {
            "name" : "houses"
        },
        {
            "name" : "nature",
            "nodes" : [
                0
            ]
        },
        {
            "name" : "wall"
        }
    ],
    "textures" : [
        {
            "sampler" : 0,
            "source" : 0
        }
    ]
}
