{
    "accessors" : [
        {
            "bufferView" : 0,
            "componentType" : 5123,
            "count" : 6,
            "max" : [
                3
            ],
            "min" : [
                0
            ],
            "type" : "SCALAR"
        },
        {
            "bufferView" : 1,
            "componentType" : 5126,
            "count" : 4,
            "max" : [
                1.0,
                0.0,
                1.0
            ],
            "min" : [
                -1.0,
                0.0,
                -1.0
            ],
            "type" : "VEC3"
        },
        {
            "bufferView" : 2,
            "componentType" : 5126,
            "count" : 4,
            "max" : [
                0.0,
                1.0,
                -0.0
            ],
            "min" : [
                0.0,
                1.0,
                -0.0
            ],
            "type" : "VEC3"
        },
        {
            "bufferView" : 3,
            "componentType" : 5126,
            "count" : 4,
            "max" : [
                -8.585966781993193e-08,
                0.0,
                -1.0,
                1.0
            ],
            "min" : [
                -8.585966781993193e-08,
                0.0,
                -1.0,
                1.0
            ],
            "type" : "VEC4"
        },
        {
            "bufferView" : 4,
            "componentType" : 5126,
            "count" : 4,
            "max" : [
                17.161041259765625,
                17.161041259765625
            ],
            "min" : [
                -16.161041259765625,
                -16.161041259765625
            ],
            "type" : "VEC2"
        }
    ],
    "asset" : {
        "generator" : "Khronos Blender glTF 2.0 exporter",
        "version" : "2.0"
    },
    "bufferViews" : [
        {
            "buffer" : 0,
            "byteLength" : 12,
            "byteOffset" : 0,
            "target" : 34963
        },
        {
            "buffer" : 0,
            "byteLength" : 48,
            "byteOffset" : 12,
            "target" : 34962
        },
        {
            "buffer" : 0,
            "byteLength" : 48,
            "byteOffset" : 60,
            "target" : 34962
        },
        {
            "buffer" : 0,
            "byteLength" : 64,
            "byteOffset" : 108,
            "target" : 34962
        },
        {
            "buffer" : 0,
            "byteLength" : 32,
            "byteOffset" : 172,
            "target" : 34962
        }
    ],
    "buffers" : [
        {
            "byteLength" : 204,
            "uri" : "obj.bin"
        }
    ],
    "images" : [
        {
            "name" : "ground",
            "uri" : "ground.png"
        }
    ],
    "materials" : [
        {
            "name" : "ground",
            "pbrMetallicRoughness" : {
                "baseColorFactor" : [
                    0.6400000190734865,
                    0.6400000190734865,
                    0.6400000190734865,
                    1.0
                ],
                "baseColorTexture" : {
                    "index" : 0
                },
                "metallicFactor" : 0.0
            }
        }
    ],
    "meshes" : [
        {
            "name" : "Plane.009",
            "primitives" : [
                {
                    "attributes" : {
                        "NORMAL" : 2,
                        "POSITION" : 1,
                        "TANGENT" : 3,
                        "TEXCOORD_0" : 4
                    },
                    "indices" : 0,
                    "material" : 0
                }
            ]
        }
    ],
    "nodes" : [
        {
            "mesh" : 0,
            "name" : "Plane.020",
            "scale" : [
                7.962143898010254,
                7.962143898010254,
                7.962143898010254
            ],
            "translation" : [
                0.0,
                -0.05000000074505806,
                -0.0
            ]
        }
    ],
    "samplers" : [
        {}
    ],
    "scene" : 5,
    "scenes" : [
        {
            "name" : "cetak"
        },
        {
            "name" : "garden"
        },
        {
            "name" : "general"
        },
        {
            "name" : "hair"
        },
        {
            "name" : "houses"
        },
        {
            "name" : "map",
            "nodes" : [
                0
            ]
        },
        {
            "name" : "nature"
        },
        {
            "name" : "Scene"
        },
        {
            "name" : "wall"
        }
    ],
    "textures" : [
        {
            "sampler" : 0,
            "source" : 0
        }
    ]
}
