<?xml version="1.0" encoding="UTF-8" standalone="no"?>
<svg
   xmlns:dc="http://purl.org/dc/elements/1.1/"
   xmlns:cc="http://creativecommons.org/ns#"
   xmlns:rdf="http://www.w3.org/1999/02/22-rdf-syntax-ns#"
   xmlns:svg="http://www.w3.org/2000/svg"
   xmlns="http://www.w3.org/2000/svg"
   version="1.1"
   id="svg2"
   viewBox="0 0 1771.6535 1771.6535"
   height="500mm"
   width="500mm">
  <defs
     id="defs4" />
  <metadata
     id="metadata7">
    <rdf:RDF>
      <cc:Work
         rdf:about="">
        <dc:format>image/svg+xml</dc:format>
        <dc:type
           rdf:resource="http://purl.org/dc/dcmitype/StillImage" />
        <dc:title></dc:title>
      </cc:Work>
    </rdf:RDF>
  </metadata>
  <g
     transform="translate(0,719.29134)"
     id="layer1">
    <rect
       y="244.47194"
       x="89.004868"
       height="545.44"
       width="577.39056"
       id="rect4154"
       style="fill:#0000be;fill-opacity:0" />
    <ellipse
       ry="104.52442"
       rx="104.08637"
       style="opacity:1;fill:#daa520;fill-opacity:1"
       id="circle4159"
       cx="-459.41766"
       cy="254.38724" />
    <circle
       r="100.85889"
       cy="254.33548"
       cx="-459.41766"
       id="path4157"
       style="opacity:1;fill:#fffcc9;fill-opacity:1" />
    <rect
       ry="8.2120676"
       y="201.97885"
       x="-520.51624"
       height="16.424135"
       width="126.78122"
       id="rect4136"
       style="opacity:1;fill:#daa520;fill-opacity:1" />
    <rect
       style="opacity:1;fill:#daa520;fill-opacity:1"
       id="rect4153"
       width="126.78122"
       height="16.424135"
       x="-520.51624"
       y="245.5499"
       ry="8.2120676" />
    <rect
       ry="8.2120676"
       y="286.70035"
       x="-520.51624"
       height="16.424135"
       width="126.78122"
       id="rect4155"
       style="opacity:1;fill:#daa520;fill-opacity:1" />
    <g
       transform="translate(22.578996,1007.0227)"
       id="g4145">
      <path
         style="opacity:1;fill:#daa520;fill-opacity:0.94117647"
         d="m -485.00828,-483.91351 c -1.52341,-0.67674 -2.65888,-2.20661 -2.93834,-3.9589 -0.58492,-3.66775 2.0057,-6.17249 6.38738,-6.17565 5.88151,-0.004 13.37789,-2.86122 18.6783,-7.11858 6.80698,-5.46747 11.7012,-15.31575 11.7012,-23.54547 0,-5.8986 6.3601,-8.53153 9.4681,-3.91958 1.31694,1.95421 1.40183,4.48024 0.34201,10.17708 -3.60671,19.38702 -19.31912,33.5176 -38.60036,34.71429 -2.24324,0.13922 -4.51047,0.0613 -5.03829,-0.17319 z"
         id="path4182" />
      <path
         style="opacity:1;fill:#daa520;fill-opacity:0.94117647"
         d="m -520.28545,-536.63544 c -2.22837,-2.00886 -2.35025,-4.06929 -0.46335,-7.83356 3.43942,-6.86145 9.73779,-13.75389 15.87284,-17.37002 4.46919,-2.63424 6.13417,-3.04726 8.24547,-2.04539 3.63624,1.72552 4.09073,6.9667 0.76444,8.81552 -7.49481,4.1658 -12.0614,8.59469 -15.33595,14.87354 -0.87137,1.67081 -2.11109,3.45222 -2.75493,3.95865 -1.76689,1.38984 -4.53817,1.21524 -6.32852,-0.39874 z"
         id="path4184" />
      <path
         style="opacity:1;fill:#daa520;fill-opacity:0.94117647"
         d="m -397.07808,-420.63446 c -2.48815,-0.74876 -5.3653,-3.38166 -25.43853,-23.27894 l -20.10959,-19.93333 -1.51771,0.92759 c -3.61449,2.20911 -11.59465,5.91557 -15.69204,7.28833 -10.23016,3.42742 -23.06324,4.6189 -33.68133,3.12714 -24.7818,-3.48168 -45.90293,-18.66928 -56.77657,-40.82642 -3.04145,-6.19754 -5.69237,-14.02908 -6.69507,-19.779 -0.96631,-5.54118 -0.96631,-21.11841 0,-26.65959 1.58172,-9.07033 6.04216,-19.96325 11.62733,-28.39532 4.17635,-6.30517 13.50434,-15.67719 19.76612,-19.85944 5.28078,-3.52703 13.57011,-7.64029 18.94457,-9.40049 7.66991,-2.512 12.32235,-3.14985 22.97469,-3.14985 11.27382,0 15.4768,0.57111 23.25995,3.16061 25.95844,8.63654 44.87264,30.0795 50.34542,57.0764 1.24232,6.12828 1.22898,22.23859 -0.0232,28.05309 -1.42502,6.61701 -3.97698,13.73758 -7.29092,20.34346 -1.70745,3.40355 -2.97153,6.31856 -2.8091,6.47781 4.26955,4.18577 38.55683,39.33991 39.92409,40.93346 1.06502,1.2413 2.20393,3.06751 2.53091,4.05826 0.75469,2.28674 0.77511,7.4782 0.0397,10.08941 -1.09348,3.88251 -5.4101,8.22279 -9.61359,9.6663 -1.84254,0.63273 -7.76773,0.68159 -9.7651,0.0805 l 2e-5,0 z m -72.81532,-51.36436 c 15.7897,-4.09677 29.22269,-14.84456 36.39726,-29.12162 7.68918,-15.30109 7.76905,-35.12412 0.20255,-50.27 -6.73619,-13.48385 -19.98655,-24.59701 -34.24607,-28.72242 -12.61135,-3.64858 -26.72846,-2.79286 -38.41273,2.32838 -8.49621,3.7239 -18.02145,11.49585 -23.28368,18.99789 -15.39047,21.94126 -13.25145,51.66601 5.08488,70.66164 8.43181,8.73499 16.48115,13.40246 28.32084,16.42205 4.22614,1.07783 5.25873,1.15326 13.22125,0.96573 6.8691,-0.16178 9.47196,-0.42003 12.7157,-1.26165 z"
         id="path4186" />
    </g>
    <path
       id="path4156"
       d="m -543.16672,72.179017 c -2.15167,-0.93933 -2.95282,-2.33671 -2.95282,-5.15031 0,-1.6315 0.37443,-2.50799 1.55418,-3.63828 l 1.55418,-1.48899 87.42628,0 87.4263,0 1.6198,1.61977 c 2.2114,2.21139 2.2125,4.90313 0.01,7.37612 l -1.6168,1.80965 -86.6283,0.11959 c -72.7669,0.10048 -86.9095,-0.004 -88.38561,-0.64755 z m -1.33305,-63.4314296 c -1.27035,-1.27034 -1.61977,-2.11631 -1.61977,-3.92153 0,-1.80522 0.34942,-2.65119 1.61977,-3.92154 l 1.61976,-1.61976 86.73791,0 c 66.0682,0 87.0841,0.15774 88.1908,0.662 1.5882,0.7236 3.0323,3.04734 3.0323,4.8793 0,1.83195 -1.4441,4.15569 -3.0323,4.8793 -1.1067,0.5042496 -22.1226,0.6619996 -88.1908,0.6619996 l -86.73791,0 -1.61976,-1.6197696 z m -0.18518,-62.7018304 c -2.54357,-3.02284 -1.68992,-7.34371 1.72959,-8.75453 1.14856,-0.47382 23.81566,-0.6003 88.17426,-0.49197 l 86.6283,0.14587 1.6168,1.80966 c 2.2097,2.47299 2.2086,5.16472 -0.01,7.37612 l -1.6199,1.61976 -87.5458,0 -87.54598,0 -1.43458,-1.70491 z"
       style="fill:#daa520;fill-opacity:1" />
    <path
       style="fill:#010101"
       d="m 171.80302,591.12686 c 0,-27.85257 8.94347,-34.69282 54.98358,-42.05501 30.2409,-4.83567 82.29758,-29.59892 115.68132,-55.02928 C 405.09212,446.33801 474.68237,340.8708 459.6182,316.49622 454.92283,308.8988 421.44891,289.57517 385.23212,273.55476 349.01496,257.53417 304.4933,230.53761 286.29436,213.56203 149.66279,86.114722 172.36354,-152.71526 330.39517,-250.4188 535.83908,-377.43487 788.23812,-239.12136 788.11934,0.41186171 787.98737,268.03922 601.42646,516.08293 338.79132,597.82421 c -46.94522,14.61103 -103.72258,26.56548 -126.17147,26.56548 -33.60369,0 -40.81683,-5.87823 -40.81683,-33.26283 z m 829.82678,3.18562 c 3.2301,-21.68327 20.822,-34.88121 63.0341,-47.29054 84.9565,-24.97515 149.5815,-69.09389 193.0159,-131.76994 52.4159,-75.63566 44.3438,-113.0426 -29.7002,-137.63524 C 1122.3823,242.54412 1027.488,108.97021 1027.2215,-4.9722333 1026.9466,-122.45437 1128.6159,-257.70373 1239.7338,-287.67496 c 172.2863,-46.46983 329.6501,44.18392 378.381,217.976945 33.6972,120.177413 -37.1575,348.983965 -148.2625,478.774725 -95.9834,112.12596 -298.3237,215.31298 -422.2087,215.31298 -43.6771,0 -49.88975,-4.06085 -46.0138,-30.07721 z"
       id="path4183" />
  </g>
</svg>
