<?xml version="1.0" encoding="UTF-8" standalone="no"?>
<svg
   xmlns:dc="http://purl.org/dc/elements/1.1/"
   xmlns:cc="http://creativecommons.org/ns#"
   xmlns:rdf="http://www.w3.org/1999/02/22-rdf-syntax-ns#"
   xmlns:svg="http://www.w3.org/2000/svg"
   xmlns="http://www.w3.org/2000/svg"
   xmlns:sodipodi="http://sodipodi.sourceforge.net/DTD/sodipodi-0.dtd"
   xmlns:inkscape="http://www.inkscape.org/namespaces/inkscape"
   id="svg8"
   version="1.1"
   viewBox="0 0 500 500"
   height="500mm"
   width="500mm"
   sodipodi:docname="user.svg"
   inkscape:version="0.92.4 (5da689c313, 2019-01-14)">
  <sodipodi:namedview
     pagecolor="#ffffff"
     bordercolor="#666666"
     borderopacity="1"
     objecttolerance="10"
     gridtolerance="10"
     guidetolerance="10"
     inkscape:pageopacity="0"
     inkscape:pageshadow="2"
     inkscape:window-width="1382"
     inkscape:window-height="908"
     id="namedview8"
     showgrid="false"
     inkscape:zoom="0.12488333"
     inkscape:cx="788.73615"
     inkscape:cy="944.88186"
     inkscape:window-x="0"
     inkscape:window-y="0"
     inkscape:window-maximized="0"
     inkscape:current-layer="layer1" />
  <defs
     id="defs2" />
  <metadata
     id="metadata5">
    <rdf:RDF>
      <cc:Work
         rdf:about="">
        <dc:format>image/svg+xml</dc:format>
        <dc:type
           rdf:resource="http://purl.org/dc/dcmitype/StillImage" />
        <dc:title />
      </cc:Work>
    </rdf:RDF>
  </metadata>
  <g
     transform="translate(0,203)"
     id="layer1">
    <path
       style="fill:#000000;fill-opacity:1;stroke-width:2.68353891"
       d="M -1.3378906 -4.2128906 L -1.3378906 946.64648 L -1.3378906 1897.5078 L 949.52344 1897.5078 L 1900.3828 1897.5078 L 1900.3828 946.64648 L 1900.3828 -4.2128906 L 949.52344 -4.2128906 L -1.3378906 -4.2128906 z M 958.50195 239.2793 C 974.76979 239.28447 991.16276 240.65606 1007.623 243.41016 C 1121.2165 262.41653 1209.2692 328.09895 1259.6309 431.39258 C 1285.0674 483.56486 1287.3086 494.7708 1287.2285 569.39062 C 1287.1374 639.47927 1284.0418 657.30937 1264.5195 699.53125 C 1234.7039 764.01596 1205.0864 802.16007 1157.3789 837.52148 C 1074.7039 898.80162 957.88475 917.70308 859.04492 885.79102 C 706.05841 836.39748 610.63145 673.99398 640.00586 513.02148 C 654.15807 435.46913 682.11931 383.96902 738.15039 332.26172 C 804.61355 270.92678 880.12057 239.25436 958.50195 239.2793 z M 960.00391 979.62891 C 1197.9033 978.87907 1429.083 1058.0001 1492.2461 1185.7031 C 1510.1061 1221.8117 1511.1836 1234.4564 1511.1836 1407.8887 C 1511.1836 1509.0323 1508.8744 1597.8583 1506.0547 1605.2793 C 1501.4525 1617.3906 1446.3115 1618.7374 967.50391 1618.4453 C 540.43551 1618.1906 432.16277 1615.9102 424.45703 1607.0234 C 409.06468 1589.2718 415.90502 1239.1437 432.42383 1199.2227 C 459.82563 1133.0037 551.09799 1065.5275 667.21094 1025.6504 C 757.91242 994.50077 859.55749 979.9455 960.00391 979.62891 z "
       transform="matrix(0.26458333,0,0,0.26458333,0,-203)"
       id="path4545" />
  </g>
</svg>
