<?xml version="1.0" encoding="UTF-8" standalone="no"?>
<svg
   xmlns:dc="http://purl.org/dc/elements/1.1/"
   xmlns:cc="http://creativecommons.org/ns#"
   xmlns:rdf="http://www.w3.org/1999/02/22-rdf-syntax-ns#"
   xmlns:svg="http://www.w3.org/2000/svg"
   xmlns="http://www.w3.org/2000/svg"
   id="svg8"
   version="1.1"
   viewBox="0 0 500 500"
   height="500mm"
   width="500mm">
  <defs
     id="defs2" />
  <metadata
     id="metadata5">
    <rdf:RDF>
      <cc:Work
         rdf:about="">
        <dc:format>image/svg+xml</dc:format>
        <dc:type
           rdf:resource="http://purl.org/dc/dcmitype/StillImage" />
        <dc:title></dc:title>
      </cc:Work>
    </rdf:RDF>
  </metadata>
  <g
     transform="translate(0,203)"
     id="layer1">
    <g
       transform="matrix(0.81146066,0,0,0.81146066,-1194.0807,-928.94603)"
       id="g4200">
      <path
         id="path4214"
         d="m 1577.5863,1479.7389 c -5.0391,-2.2873 -71.4076,-69.1352 -73.0661,-73.5938 -1.8754,-5.0418 -1.6146,-12.6983 0.6159,-18.0838 1.3425,-3.2414 28.2167,-30.958 88.8325,-91.6169 76.2773,-76.3316 87.0445,-87.5695 88.0265,-91.875 2.5925,-11.3665 6.0984,-7.3174 -88.129,-101.7804 -47.6621,-47.7813 -87.5576,-88.6752 -88.6566,-90.8754 -2.5309,-5.0669 -2.556,-12.86691 -0.061,-18.85231 2.3542,-5.647 64.0091,-68.09 70.5625,-71.4644 6.5682,-3.3821 11.6956,-4.1169 17.7079,-2.5378 4.87,1.2791 14.1923,10.1829 92.2921,88.14831 87.241,87.0909 91.0706,90.5816 99.375,90.5816 8.3073,0 12.1324,-3.4829 98.75,-89.9166 47.4375,-47.33681 87.6288,-86.76971 89.314,-87.62871 5.3475,-2.7258 15.451,-1.951 21.5215,1.6505 7.9282,4.7036 67.9599,65.4312 70.3516,71.1671 2.4957,5.9851 2.4707,13.78511 -0.06,18.85231 -1.0991,2.2002 -40.9945,43.0941 -88.6566,90.8754 -77.2033,77.3963 -86.8102,87.4546 -88.05,92.1875 -3.1571,12.0524 -7.3355,7.1821 88.7409,103.4375 48.4899,48.5802 87.9214,89.0651 88.6506,91.0188 1.6861,4.5178 1.6807,12.2175 -0.011,16.7123 -1.6972,4.5079 -67.9,70.9912 -73.1926,73.5027 -5.5188,2.6189 -14.6402,2.3819 -20.2198,-0.5253 -2.5706,-1.3394 -42.5232,-40.3752 -89.6377,-87.5806 -46.75,-46.8403 -86.5189,-85.9716 -88.3754,-86.9586 -4.0081,-2.1307 -13.7997,-2.3588 -17.6442,-0.4111 -1.5017,0.7608 -41.5429,40.1134 -88.9803,87.4501 -60.044,59.9165 -87.6621,86.6517 -90.8974,87.9918 -5.6837,2.3541 -14.0707,2.4089 -19.1026,0.1248 z"
         style="fill:#cfcfcf" />
    </g>
  </g>
</svg>
