<?xml version="1.0" encoding="UTF-8" standalone="no"?>
<svg
   xmlns:dc="http://purl.org/dc/elements/1.1/"
   xmlns:cc="http://creativecommons.org/ns#"
   xmlns:rdf="http://www.w3.org/1999/02/22-rdf-syntax-ns#"
   xmlns:svg="http://www.w3.org/2000/svg"
   xmlns="http://www.w3.org/2000/svg"
   id="svg8"
   version="1.1"
   viewBox="0 0 500 500"
   height="500mm"
   width="500mm">
  <defs
     id="defs2" />
  <metadata
     id="metadata5">
    <rdf:RDF>
      <cc:Work
         rdf:about="">
        <dc:format>image/svg+xml</dc:format>
        <dc:type
           rdf:resource="http://purl.org/dc/dcmitype/StillImage" />
        <dc:title></dc:title>
      </cc:Work>
    </rdf:RDF>
  </metadata>
  <g
     transform="translate(0,203)"
     id="layer1">
    <g
       transform="matrix(0.76753724,0,0,0.76753724,448.73362,539.06648)"
       id="g4145">
      <path
         style="opacity:1;fill:#daa520;fill-opacity:1;stroke-width:3.51191735"
         d="m -316.40628,-547.90114 c -5.35009,-2.37666 -9.33776,-7.74943 -10.3192,-13.90333 -2.05419,-12.88084 7.04385,-21.67728 22.43195,-21.68838 20.65538,-0.014 46.98204,-10.04836 65.59665,-24.99986 23.90555,-19.2013 41.09364,-53.78765 41.09364,-82.68975 0,-20.71539 22.33615,-29.96203 33.25119,-13.76524 4.62498,6.86303 4.92311,15.73424 1.20111,35.74107 -12.66647,68.08561 -67.84715,117.71104 -135.56128,121.91372 -7.87807,0.48893 -15.8404,0.21528 -17.69406,-0.60823 z"
         id="path4182" />
      <path
         style="opacity:1;fill:#daa520;fill-opacity:1;stroke-width:3.51191735"
         d="m -440.29678,-733.05621 c -7.82585,-7.05495 -8.25389,-14.29101 -1.62725,-27.51081 12.07896,-24.09685 34.19831,-48.30253 55.7441,-61.00208 15.69543,-9.25123 21.5427,-10.70172 28.95741,-7.18324 12.77018,6.05988 14.36631,24.46648 2.68465,30.95938 -26.32115,14.62994 -42.35864,30.18384 -53.85859,52.23464 -3.06018,5.86775 -7.41397,12.12391 -9.67508,13.90246 -6.20518,4.881 -15.93768,4.26782 -22.22524,-1.40035 z"
         id="path4184" />
      <path
         style="opacity:1;fill:#daa520;fill-opacity:1;stroke-width:3.51191735"
         d="m -7.6026744,-325.67034 c -8.7381796,-2.62959 -18.8424996,-11.87612 -89.3380196,-81.75372 l -70.623216,-70.00421 -5.33007,3.25762 c -12.69379,7.75821 -40.71946,20.77499 -55.10915,25.59601 -35.92748,12.03682 -80.9962,16.2212 -118.28605,10.98226 -87.03164,-12.22737 -161.2073,-65.56497 -199.39463,-143.37901 -10.68132,-21.76525 -19.99113,-49.26897 -23.51253,-69.46222 -3.3936,-19.46016 -3.3936,-74.16611 0,-93.62628 5.55487,-31.85425 21.21957,-70.10928 40.83422,-99.72202 14.667,-22.14323 47.42613,-55.05699 69.41698,-69.74471 18.54567,-12.38664 47.65711,-26.83207 66.53177,-33.01374 26.93609,-8.82194 43.27508,-11.06202 80.68521,-11.06202 39.59273,0 54.35325,2.00569 81.68703,11.0998 91.1639,30.33082 157.588996,105.63672 176.808956,200.44761 4.36292,21.52201 4.31607,78.10009 -0.0815,98.52013 -5.00455,23.2384 -13.96683,48.24525 -25.60511,71.44455 -5.99642,11.95299 -10.43577,22.19027 -9.86533,22.74954 14.99431,14.70008 135.408405,138.15851 140.21011,143.75493 3.740262,4.35934 7.74002,10.77284 8.888346,14.25227 2.650409,8.03085 2.722123,26.26282 0.139424,35.43318 -3.840212,13.63505 -18.999825,28.87776 -33.762135,33.94725 -6.470848,2.22209 -27.27962536,2.39368 -34.2942254,0.28271 h 7e-5 z M -263.32407,-506.05774 c 55.45213,-14.38751 102.62768,-52.13286 127.82418,-102.27272 27.00376,-53.73616 27.28426,-123.35301 0.71133,-176.54409 -23.65694,-47.35417 -70.19111,-86.38267 -120.26936,-100.87077 -44.29002,-12.81351 -93.86815,-9.80829 -134.90234,8.17708 -29.83799,13.07803 -63.28984,40.37248 -81.77036,66.71902 -54.05006,77.0559 -46.538,181.44676 17.85768,248.15785 29.61182,30.67656 57.88043,47.06833 99.46045,57.67288 14.84185,3.78525 18.46822,4.05016 46.43194,3.39157 24.12371,-0.56816 33.26474,-1.47512 44.65648,-4.43082 z"
         id="path4186" />
    </g>
  </g>
</svg>
