{
    "accessors" : [
        {
            "bufferView" : 0,
            "componentType" : 5123,
            "count" : 2652,
            "max" : [
                585
            ],
            "min" : [
                0
            ],
            "type" : "SCALAR"
        },
        {
            "bufferView" : 1,
            "componentType" : 5126,
            "count" : 586,
            "max" : [
                0.8390769958496094,
                0.9080111980438232,
                0.8390767574310303
            ],
            "min" : [
                -0.8390764594078064,
                -0.8812451958656311,
                -0.8390758037567139
            ],
            "type" : "VEC3"
        },
        {
            "bufferView" : 2,
            "componentType" : 5126,
            "count" : 586,
            "max" : [
                0.9984740614891052,
                1.0,
                0.9984740614891052
            ],
            "min" : [
                -0.9984740614891052,
                -0.42609941959381104,
                -0.9984740614891052
            ],
            "type" : "VEC3"
        },
        {
            "bufferView" : 3,
            "componentType" : 5126,
            "count" : 586,
            "max" : [
                0.9996994137763977,
                0.9457592368125916,
                0.9996148347854614,
                1.0
            ],
            "min" : [
                -0.9987015128135681,
                -0.9457592368125916,
                -0.9991745352745056,
                1.0
            ],
            "type" : "VEC4"
        },
        {
            "bufferView" : 4,
            "componentType" : 5126,
            "count" : 586,
            "max" : [
                1.9722628593444824,
                1.972262978553772
            ],
            "min" : [
                -0.9722628593444824,
                -0.972262978553772
            ],
            "type" : "VEC2"
        },
        {
            "bufferView" : 5,
            "componentType" : 5123,
            "count" : 132,
            "max" : [
                38
            ],
            "min" : [
                0
            ],
            "type" : "SCALAR"
        },
        {
            "bufferView" : 6,
            "componentType" : 5126,
            "count" : 39,
            "max" : [
                0.38008299469947815,
                0.8311671018600464,
                0.6317754983901978
            ],
            "min" : [
                -0.3800829350948334,
                0.34591710567474365,
                0.3410896360874176
            ],
            "type" : "VEC3"
        },
        {
            "bufferView" : 7,
            "componentType" : 5126,
            "count" : 39,
            "max" : [
                0.6541032195091248,
                0.6760765314102173,
                0.9971923232078552
            ],
            "min" : [
                -0.6541032195091248,
                -0.42609941959381104,
                0.52098149061203
            ],
            "type" : "VEC3"
        },
        {
            "bufferView" : 8,
            "componentType" : 5126,
            "count" : 39,
            "max" : [
                0.998053252696991,
                0.15865454077720642,
                0.6942752599716187,
                1.0
            ],
            "min" : [
                0.6890151500701904,
                -0.14157740771770477,
                -0.7242383360862732,
                1.0
            ],
            "type" : "VEC4"
        },
        {
            "bufferView" : 9,
            "componentType" : 5126,
            "count" : 39,
            "max" : [
                1.8703899383544922,
                -0.5943350791931152
            ],
            "min" : [
                -0.8024379014968872,
                -0.9573498964309692
            ],
            "type" : "VEC2"
        }
    ],
    "asset" : {
        "generator" : "Khronos Blender glTF 2.0 exporter",
        "version" : "2.0"
    },
    "bufferViews" : [
        {
            "buffer" : 0,
            "byteLength" : 5304,
            "byteOffset" : 0,
            "target" : 34963
        },
        {
            "buffer" : 0,
            "byteLength" : 7032,
            "byteOffset" : 5304,
            "target" : 34962
        },
        {
            "buffer" : 0,
            "byteLength" : 7032,
            "byteOffset" : 12336,
            "target" : 34962
        },
        {
            "buffer" : 0,
            "byteLength" : 9376,
            "byteOffset" : 19368,
            "target" : 34962
        },
        {
            "buffer" : 0,
            "byteLength" : 4688,
            "byteOffset" : 28744,
            "target" : 34962
        },
        {
            "buffer" : 0,
            "byteLength" : 264,
            "byteOffset" : 33432,
            "target" : 34963
        },
        {
            "buffer" : 0,
            "byteLength" : 468,
            "byteOffset" : 33696,
            "target" : 34962
        },
        {
            "buffer" : 0,
            "byteLength" : 468,
            "byteOffset" : 34164,
            "target" : 34962
        },
        {
            "buffer" : 0,
            "byteLength" : 624,
            "byteOffset" : 34632,
            "target" : 34962
        },
        {
            "buffer" : 0,
            "byteLength" : 312,
            "byteOffset" : 35256,
            "target" : 34962
        }
    ],
    "buffers" : [
        {
            "byteLength" : 35568,
            "uri" : "body.bin"
        }
    ],
    "images" : [
        {
            "name" : "ornament_1",
            "uri" : "ornament_1.png"
        },
        {
            "name" : "ornament_2",
            "uri" : "ornament_2.png"
        }
    ],
    "materials" : [
        {
            "name" : "ornament_1",
            "pbrMetallicRoughness" : {
                "baseColorFactor" : [
                    0.6400000190734865,
                    0.6400000190734865,
                    0.6400000190734865,
                    1.0
                ],
                "baseColorTexture" : {
                    "index" : 0
                },
                "metallicFactor" : 0.0
            }
        },
        {
            "name" : "ornament_2",
            "pbrMetallicRoughness" : {
                "baseColorFactor" : [
                    0.6400000190734865,
                    0.6400000190734865,
                    0.6400000190734865,
                    1.0
                ],
                "baseColorTexture" : {
                    "index" : 1
                },
                "metallicFactor" : 0.0
            }
        }
    ],
    "meshes" : [
        {
            "name" : "Sphere.063",
            "primitives" : [
                {
                    "attributes" : {
                        "NORMAL" : 2,
                        "POSITION" : 1,
                        "TANGENT" : 3,
                        "TEXCOORD_0" : 4
                    },
                    "indices" : 0,
                    "material" : 0
                },
                {
                    "attributes" : {
                        "NORMAL" : 7,
                        "POSITION" : 6,
                        "TANGENT" : 8,
                        "TEXCOORD_0" : 9
                    },
                    "indices" : 5,
                    "material" : 1
                }
            ]
        }
    ],
    "nodes" : [
        {
            "mesh" : 0,
            "name" : "Sphere.145",
            "scale" : [
                0.22015132009983063,
                0.22015132009983063,
                0.22015132009983063
            ],
            "translation" : [
                0.0,
                0.08623433858156204,
                -0.0
            ]
        }
    ],
    "samplers" : [
        {}
    ],
    "scene" : 12,
    "scenes" : [
        {
            "name" : "new"
        },
        {
            "name" : "Scene"
        },
        {
            "name" : "Scene.001"
        },
        {
            "name" : "SU01"
        },
        {
            "name" : "SU02"
        },
        {
            "name" : "SU03"
        },
        {
            "name" : "SU04"
        },
        {
            "name" : "SU05"
        },
        {
            "name" : "SU06"
        },
        {
            "name" : "SU07"
        },
        {
            "name" : "SU08"
        },
        {
            "name" : "SU09"
        },
        {
            "name" : "SU10",
            "nodes" : [
                0
            ]
        },
        {
            "name" : "Untitled"
        }
    ],
    "textures" : [
        {
            "sampler" : 0,
            "source" : 0
        },
        {
            "sampler" : 0,
            "source" : 1
        }
    ]
}
