{
    "accessors" : [
        {
            "bufferView" : 0,
            "componentType" : 5123,
            "count" : 3168,
            "max" : [
                623
            ],
            "min" : [
                0
            ],
            "type" : "SCALAR"
        },
        {
            "bufferView" : 1,
            "componentType" : 5126,
            "count" : 624,
            "max" : [
                -0.004743626341223717,
                0.6616958975791931,
                0.14634975790977478
            ],
            "min" : [
                -1.4675085544586182,
                0.0,
                -0.3059326708316803
            ],
            "type" : "VEC3"
        },
        {
            "bufferView" : 2,
            "componentType" : 5126,
            "count" : 624,
            "max" : [
                0.7688528299331665,
                0.9982299208641052,
                0.9971312880516052
            ],
            "min" : [
                -0.8601031303405762,
                -0.9834284782409668,
                -0.9975585341453552
            ],
            "type" : "VEC3"
        },
        {
            "bufferView" : 3,
            "componentType" : 5123,
            "count" : 2880,
            "max" : [
                481
            ],
            "min" : [
                0
            ],
            "type" : "SCALAR"
        },
        {
            "bufferView" : 4,
            "componentType" : 5126,
            "count" : 482,
            "max" : [
                1.0000001192092896,
                1.0,
                0.9999995827674866
            ],
            "min" : [
                -1.0,
                -1.0,
                -1.0000001192092896
            ],
            "type" : "VEC3"
        },
        {
            "bufferView" : 5,
            "componentType" : 5126,
            "count" : 482,
            "max" : [
                1.0,
                1.0,
                1.0
            ],
            "min" : [
                -1.0,
                -1.0,
                -0.999969482421875
            ],
            "type" : "VEC3"
        },
        {
            "bufferView" : 6,
            "componentType" : 5123,
            "count" : 2880,
            "max" : [
                481
            ],
            "min" : [
                0
            ],
            "type" : "SCALAR"
        },
        {
            "bufferView" : 7,
            "componentType" : 5126,
            "count" : 482,
            "max" : [
                0.9807854890823364,
                0.9807852506637573,
                1.1260719299316406
            ],
            "min" : [
                -1.0020930767059326,
                -1.043104648590088,
                -0.9807853102684021
            ],
            "type" : "VEC3"
        },
        {
            "bufferView" : 8,
            "componentType" : 5126,
            "count" : 482,
            "max" : [
                0.999908447265625,
                1.0,
                0.999603271484375
            ],
            "min" : [
                -0.9981994032859802,
                -1.0,
                -0.9955748319625854
            ],
            "type" : "VEC3"
        },
        {
            "bufferView" : 9,
            "componentType" : 5123,
            "count" : 3168,
            "max" : [
                623
            ],
            "min" : [
                0
            ],
            "type" : "SCALAR"
        },
        {
            "bufferView" : 10,
            "componentType" : 5126,
            "count" : 624,
            "max" : [
                -0.004743626341223717,
                0.5394279956817627,
                0.21221917867660522
            ],
            "min" : [
                -2.178306818008423,
                0.0,
                -0.20611819624900818
            ],
            "type" : "VEC3"
        },
        {
            "bufferView" : 11,
            "componentType" : 5126,
            "count" : 624,
            "max" : [
                0.6134220361709595,
                0.999664306640625,
                0.999908447265625
            ],
            "min" : [
                -0.5431684255599976,
                -0.999847412109375,
                -0.999664306640625
            ],
            "type" : "VEC3"
        },
        {
            "bufferView" : 12,
            "componentType" : 5123,
            "count" : 3168,
            "max" : [
                623
            ],
            "min" : [
                0
            ],
            "type" : "SCALAR"
        },
        {
            "bufferView" : 13,
            "componentType" : 5126,
            "count" : 624,
            "max" : [
                -0.004743626341223717,
                0.5394279956817627,
                0.21221917867660522
            ],
            "min" : [
                -2.178306818008423,
                0.0,
                -0.20611819624900818
            ],
            "type" : "VEC3"
        },
        {
            "bufferView" : 14,
            "componentType" : 5126,
            "count" : 624,
            "max" : [
                0.6134220361709595,
                0.999664306640625,
                0.999908447265625
            ],
            "min" : [
                -0.5431684255599976,
                -0.999847412109375,
                -0.999664306640625
            ],
            "type" : "VEC3"
        },
        {
            "bufferView" : 15,
            "componentType" : 5123,
            "count" : 3168,
            "max" : [
                623
            ],
            "min" : [
                0
            ],
            "type" : "SCALAR"
        },
        {
            "bufferView" : 16,
            "componentType" : 5126,
            "count" : 624,
            "max" : [
                -0.004743626341223717,
                0.5394279956817627,
                0.21221917867660522
            ],
            "min" : [
                -2.178306818008423,
                0.0,
                -0.20611819624900818
            ],
            "type" : "VEC3"
        },
        {
            "bufferView" : 17,
            "componentType" : 5126,
            "count" : 624,
            "max" : [
                0.6134220361709595,
                0.999664306640625,
                0.999908447265625
            ],
            "min" : [
                -0.5431684255599976,
                -0.999847412109375,
                -0.999664306640625
            ],
            "type" : "VEC3"
        },
        {
            "bufferView" : 18,
            "componentType" : 5123,
            "count" : 3168,
            "max" : [
                623
            ],
            "min" : [
                0
            ],
            "type" : "SCALAR"
        },
        {
            "bufferView" : 19,
            "componentType" : 5126,
            "count" : 624,
            "max" : [
                -0.004743626341223717,
                0.5394279956817627,
                0.21221917867660522
            ],
            "min" : [
                -2.178306818008423,
                0.0,
                -0.20611819624900818
            ],
            "type" : "VEC3"
        },
        {
            "bufferView" : 20,
            "componentType" : 5126,
            "count" : 624,
            "max" : [
                0.6134220361709595,
                0.999664306640625,
                0.999908447265625
            ],
            "min" : [
                -0.5431684255599976,
                -0.999847412109375,
                -0.999664306640625
            ],
            "type" : "VEC3"
        },
        {
            "bufferView" : 21,
            "componentType" : 5123,
            "count" : 3168,
            "max" : [
                623
            ],
            "min" : [
                0
            ],
            "type" : "SCALAR"
        },
        {
            "bufferView" : 22,
            "componentType" : 5126,
            "count" : 624,
            "max" : [
                -0.004743626341223717,
                0.5394279956817627,
                0.21221917867660522
            ],
            "min" : [
                -2.178306818008423,
                0.0,
                -0.20611819624900818
            ],
            "type" : "VEC3"
        },
        {
            "bufferView" : 23,
            "componentType" : 5126,
            "count" : 624,
            "max" : [
                0.6134220361709595,
                0.999664306640625,
                0.999908447265625
            ],
            "min" : [
                -0.5431684255599976,
                -0.999847412109375,
                -0.999664306640625
            ],
            "type" : "VEC3"
        },
        {
            "bufferView" : 24,
            "componentType" : 5123,
            "count" : 2880,
            "max" : [
                481
            ],
            "min" : [
                0
            ],
            "type" : "SCALAR"
        },
        {
            "bufferView" : 25,
            "componentType" : 5126,
            "count" : 482,
            "max" : [
                1.0000001192092896,
                1.0,
                0.9999995827674866
            ],
            "min" : [
                -1.0,
                -1.0,
                -1.0000001192092896
            ],
            "type" : "VEC3"
        },
        {
            "bufferView" : 26,
            "componentType" : 5126,
            "count" : 482,
            "max" : [
                1.0,
                1.0,
                1.0
            ],
            "min" : [
                -1.0,
                -1.0,
                -0.999969482421875
            ],
            "type" : "VEC3"
        }
    ],
    "asset" : {
        "generator" : "Khronos Blender glTF 2.0 exporter",
        "version" : "2.0"
    },
    "bufferViews" : [
        {
            "buffer" : 0,
            "byteLength" : 6336,
            "byteOffset" : 0,
            "target" : 34963
        },
        {
            "buffer" : 0,
            "byteLength" : 7488,
            "byteOffset" : 6336,
            "target" : 34962
        },
        {
            "buffer" : 0,
            "byteLength" : 7488,
            "byteOffset" : 13824,
            "target" : 34962
        },
        {
            "buffer" : 0,
            "byteLength" : 5760,
            "byteOffset" : 21312,
            "target" : 34963
        },
        {
            "buffer" : 0,
            "byteLength" : 5784,
            "byteOffset" : 27072,
            "target" : 34962
        },
        {
            "buffer" : 0,
            "byteLength" : 5784,
            "byteOffset" : 32856,
            "target" : 34962
        },
        {
            "buffer" : 0,
            "byteLength" : 5760,
            "byteOffset" : 38640,
            "target" : 34963
        },
        {
            "buffer" : 0,
            "byteLength" : 5784,
            "byteOffset" : 44400,
            "target" : 34962
        },
        {
            "buffer" : 0,
            "byteLength" : 5784,
            "byteOffset" : 50184,
            "target" : 34962
        },
        {
            "buffer" : 0,
            "byteLength" : 6336,
            "byteOffset" : 55968,
            "target" : 34963
        },
        {
            "buffer" : 0,
            "byteLength" : 7488,
            "byteOffset" : 62304,
            "target" : 34962
        },
        {
            "buffer" : 0,
            "byteLength" : 7488,
            "byteOffset" : 69792,
            "target" : 34962
        },
        {
            "buffer" : 0,
            "byteLength" : 6336,
            "byteOffset" : 77280,
            "target" : 34963
        },
        {
            "buffer" : 0,
            "byteLength" : 7488,
            "byteOffset" : 83616,
            "target" : 34962
        },
        {
            "buffer" : 0,
            "byteLength" : 7488,
            "byteOffset" : 91104,
            "target" : 34962
        },
        {
            "buffer" : 0,
            "byteLength" : 6336,
            "byteOffset" : 98592,
            "target" : 34963
        },
        {
            "buffer" : 0,
            "byteLength" : 7488,
            "byteOffset" : 104928,
            "target" : 34962
        },
        {
            "buffer" : 0,
            "byteLength" : 7488,
            "byteOffset" : 112416,
            "target" : 34962
        },
        {
            "buffer" : 0,
            "byteLength" : 6336,
            "byteOffset" : 119904,
            "target" : 34963
        },
        {
            "buffer" : 0,
            "byteLength" : 7488,
            "byteOffset" : 126240,
            "target" : 34962
        },
        {
            "buffer" : 0,
            "byteLength" : 7488,
            "byteOffset" : 133728,
            "target" : 34962
        },
        {
            "buffer" : 0,
            "byteLength" : 6336,
            "byteOffset" : 141216,
            "target" : 34963
        },
        {
            "buffer" : 0,
            "byteLength" : 7488,
            "byteOffset" : 147552,
            "target" : 34962
        },
        {
            "buffer" : 0,
            "byteLength" : 7488,
            "byteOffset" : 155040,
            "target" : 34962
        },
        {
            "buffer" : 0,
            "byteLength" : 5760,
            "byteOffset" : 162528,
            "target" : 34963
        },
        {
            "buffer" : 0,
            "byteLength" : 5784,
            "byteOffset" : 168288,
            "target" : 34962
        },
        {
            "buffer" : 0,
            "byteLength" : 5784,
            "byteOffset" : 174072,
            "target" : 34962
        }
    ],
    "buffers" : [
        {
            "byteLength" : 179856,
            "uri" : "obj.bin"
        }
    ],
    "images" : [
        {
            "name" : "ornament_1",
            "uri" : "ornament_1.png"
        },
        {
            "name" : "ornament_2",
            "uri" : "ornament_2.png"
        }
    ],
    "materials" : [
        {
            "name" : "ornament_1",
            "pbrMetallicRoughness" : {
                "baseColorFactor" : [
                    0.6400000190734865,
                    0.6400000190734865,
                    0.6400000190734865,
                    1.0
                ],
                "baseColorTexture" : {
                    "index" : 0
                },
                "metallicFactor" : 0.0
            }
        },
        {
            "name" : "ornament_2",
            "pbrMetallicRoughness" : {
                "baseColorFactor" : [
                    0.6400000190734865,
                    0.6400000190734865,
                    0.6400000190734865,
                    1.0
                ],
                "baseColorTexture" : {
                    "index" : 1
                },
                "metallicFactor" : 0.0
            }
        }
    ],
    "meshes" : [
        {
            "name" : "CUBezierCurve.048",
            "primitives" : [
                {
                    "attributes" : {
                        "NORMAL" : 2,
                        "POSITION" : 1
                    },
                    "indices" : 0,
                    "material" : 0
                }
            ]
        },
        {
            "name" : "Sphere.072",
            "primitives" : [
                {
                    "attributes" : {
                        "NORMAL" : 5,
                        "POSITION" : 4
                    },
                    "indices" : 3,
                    "material" : 1
                }
            ]
        },
        {
            "name" : "Sphere.073",
            "primitives" : [
                {
                    "attributes" : {
                        "NORMAL" : 8,
                        "POSITION" : 7
                    },
                    "indices" : 6,
                    "material" : 0
                }
            ]
        },
        {
            "name" : "CUBezierCurve.043",
            "primitives" : [
                {
                    "attributes" : {
                        "NORMAL" : 11,
                        "POSITION" : 10
                    },
                    "indices" : 9,
                    "material" : 0
                }
            ]
        },
        {
            "name" : "CUBezierCurve.045",
            "primitives" : [
                {
                    "attributes" : {
                        "NORMAL" : 14,
                        "POSITION" : 13
                    },
                    "indices" : 12,
                    "material" : 0
                }
            ]
        },
        {
            "name" : "CUBezierCurve.047",
            "primitives" : [
                {
                    "attributes" : {
                        "NORMAL" : 17,
                        "POSITION" : 16
                    },
                    "indices" : 15,
                    "material" : 0
                }
            ]
        },
        {
            "name" : "CUBezierCurve.044",
            "primitives" : [
                {
                    "attributes" : {
                        "NORMAL" : 20,
                        "POSITION" : 19
                    },
                    "indices" : 18,
                    "material" : 0
                }
            ]
        },
        {
            "name" : "CUBezierCurve.046",
            "primitives" : [
                {
                    "attributes" : {
                        "NORMAL" : 23,
                        "POSITION" : 22
                    },
                    "indices" : 21,
                    "material" : 0
                }
            ]
        },
        {
            "name" : "Sphere.071",
            "primitives" : [
                {
                    "attributes" : {
                        "NORMAL" : 26,
                        "POSITION" : 25
                    },
                    "indices" : 24,
                    "material" : 0
                }
            ]
        }
    ],
    "nodes" : [
        {
            "mesh" : 3,
            "name" : "BezierCurve.026",
            "rotation" : [
                0.7100909352302551,
                0.11638494580984116,
                0.6846712827682495,
                0.11597739160060883
            ],
            "scale" : [
                0.6521762013435364,
                0.6521762013435364,
                0.6521762013435364
            ],
            "translation" : [
                0.0,
                1.0395313501358032,
                -0.881941556930542
            ]
        },
        {
            "mesh" : 6,
            "name" : "BezierCurve.027",
            "rotation" : [
                -0.4267559349536896,
                -0.5692756772041321,
                0.42027610540390015,
                0.5631808638572693
            ],
            "scale" : [
                1.1373658180236816,
                1.1373660564422607,
                1.1373658180236816
            ],
            "translation" : [
                0.0,
                1.0395313501358032,
                -0.881941556930542
            ]
        },
        {
            "mesh" : 4,
            "name" : "BezierCurve.028",
            "rotation" : [
                -0.4272574782371521,
                -0.5603885650634766,
                0.3642805218696594,
                0.6088640689849854
            ],
            "scale" : [
                1.138560175895691,
                1.1385605335235596,
                1.1385605335235596
            ],
            "translation" : [
                0.0,
                1.0395313501358032,
                -0.881941556930542
            ]
        },
        {
            "mesh" : 7,
            "name" : "BezierCurve.029",
            "rotation" : [
                -0.3696216940879822,
                -0.6158372759819031,
                0.42105939984321594,
                0.5539253354072571
            ],
            "scale" : [
                1.1618093252182007,
                1.1618090867996216,
                1.1618092060089111
            ],
            "translation" : [
                0.0,
                1.0395313501358032,
                -0.881941556930542
            ]
        },
        {
            "mesh" : 5,
            "name" : "BezierCurve.030",
            "rotation" : [
                -0.3995654881000519,
                -0.5885676145553589,
                0.3928038775920868,
                0.582787036895752
            ],
            "scale" : [
                1.288114070892334,
                1.288114070892334,
                1.2881139516830444
            ],
            "translation" : [
                0.0,
                1.0395313501358032,
                -0.881941556930542
            ]
        },
        {
            "mesh" : 0,
            "name" : "BezierCurve.031",
            "rotation" : [
                -0.2520066201686859,
                -0.0415368489921093,
                -0.9539623260498047,
                0.15723645687103271
            ],
            "scale" : [
                -1.6841567754745483,
                -1.684156894683838,
                -1.684157371520996
            ],
            "translation" : [
                0.7933825254440308,
                0.2821669578552246,
                -0.09018580615520477
            ]
        },
        {
            "children" : [
                0,
                1,
                2,
                3,
                4,
                5,
                7,
                8
            ],
            "mesh" : 2,
            "name" : "hair2",
            "scale" : [
                0.11532802134752274,
                0.11532802134752274,
                0.11532802134752274
            ],
            "translation" : [
                0.0,
                0.1205155998468399,
                -0.015788361430168152
            ]
        },
        {
            "mesh" : 8,
            "name" : "Sphere.008",
            "scale" : [
                0.3091201186180115,
                0.3091201186180115,
                0.3091201186180115
            ],
            "translation" : [
                0.0,
                0.8131178617477417,
                -1.0081617832183838
            ]
        },
        {
            "mesh" : 1,
            "name" : "Sphere.009",
            "scale" : [
                0.2396632432937622,
                0.2396632432937622,
                0.2396632432937622
            ],
            "translation" : [
                0.0,
                0.6615438461303711,
                -0.8216355443000793
            ]
        }
    ],
    "samplers" : [
        {}
    ],
    "scene" : 0,
    "scenes" : [
        {
            "name" : "Scene",
            "nodes" : [
                6
            ]
        }
    ],
    "textures" : [
        {
            "sampler" : 0,
            "source" : 0
        },
        {
            "sampler" : 0,
            "source" : 1
        }
    ]
}
