{
    "accessors" : [
        {
            "bufferView" : 0,
            "componentType" : 5123,
            "count" : 1140,
            "max" : [
                332
            ],
            "min" : [
                0
            ],
            "type" : "SCALAR"
        },
        {
            "bufferView" : 1,
            "componentType" : 5126,
            "count" : 333,
            "max" : [
                1.123421549797058,
                1.0,
                1.416833758354187
            ],
            "min" : [
                -1.1234216690063477,
                -1.0383007526397705,
                -1.0
            ],
            "type" : "VEC3"
        },
        {
            "bufferView" : 2,
            "componentType" : 5126,
            "count" : 333,
            "max" : [
                0.9976806044578552,
                0.8304391503334045,
                0.9893185496330261
            ],
            "min" : [
                -0.9976806044578552,
                -0.7615283727645874,
                -1.0
            ],
            "type" : "VEC3"
        },
        {
            "bufferView" : 3,
            "componentType" : 5126,
            "count" : 333,
            "max" : [
                1.0,
                1.0
            ],
            "min" : [
                0.0,
                0.0
            ],
            "type" : "VEC2"
        },
        {
            "bufferView" : 4,
            "componentType" : 5123,
            "count" : 1140,
            "max" : [
                334
            ],
            "min" : [
                0
            ],
            "type" : "SCALAR"
        },
        {
            "bufferView" : 5,
            "componentType" : 5126,
            "count" : 335,
            "max" : [
                1.087626576423645,
                1.2328190803527832,
                1.352253794670105
            ],
            "min" : [
                -1.087626576423645,
                -1.0,
                -1.0332155227661133
            ],
            "type" : "VEC3"
        },
        {
            "bufferView" : 6,
            "componentType" : 5126,
            "count" : 335,
            "max" : [
                0.999908447265625,
                0.7179784774780273,
                0.9880672693252563
            ],
            "min" : [
                -0.999908447265625,
                -0.8036743998527527,
                -0.999847412109375
            ],
            "type" : "VEC3"
        },
        {
            "bufferView" : 7,
            "componentType" : 5126,
            "count" : 335,
            "max" : [
                1.0,
                1.0
            ],
            "min" : [
                0.0,
                0.0
            ],
            "type" : "VEC2"
        },
        {
            "bufferView" : 8,
            "componentType" : 5123,
            "count" : 1140,
            "max" : [
                331
            ],
            "min" : [
                0
            ],
            "type" : "SCALAR"
        },
        {
            "bufferView" : 9,
            "componentType" : 5126,
            "count" : 332,
            "max" : [
                1.4270156621932983,
                1.0603909492492676,
                1.5455163717269897
            ],
            "min" : [
                -1.427015781402588,
                -1.0581583976745605,
                -1.0
            ],
            "type" : "VEC3"
        },
        {
            "bufferView" : 10,
            "componentType" : 5126,
            "count" : 332,
            "max" : [
                0.9964293241500854,
                0.8503677248954773,
                0.999847412109375
            ],
            "min" : [
                -0.9964293241500854,
                -0.7930539846420288,
                -1.0
            ],
            "type" : "VEC3"
        },
        {
            "bufferView" : 11,
            "componentType" : 5126,
            "count" : 332,
            "max" : [
                0.9999999403953552,
                1.0
            ],
            "min" : [
                0.0,
                0.0
            ],
            "type" : "VEC2"
        }
    ],
    "asset" : {
        "generator" : "Khronos Blender glTF 2.0 exporter",
        "version" : "2.0"
    },
    "bufferViews" : [
        {
            "buffer" : 0,
            "byteLength" : 2280,
            "byteOffset" : 0,
            "target" : 34963
        },
        {
            "buffer" : 0,
            "byteLength" : 3996,
            "byteOffset" : 2280,
            "target" : 34962
        },
        {
            "buffer" : 0,
            "byteLength" : 3996,
            "byteOffset" : 6276,
            "target" : 34962
        },
        {
            "buffer" : 0,
            "byteLength" : 2664,
            "byteOffset" : 10272,
            "target" : 34962
        },
        {
            "buffer" : 0,
            "byteLength" : 2280,
            "byteOffset" : 12936,
            "target" : 34963
        },
        {
            "buffer" : 0,
            "byteLength" : 4020,
            "byteOffset" : 15216,
            "target" : 34962
        },
        {
            "buffer" : 0,
            "byteLength" : 4020,
            "byteOffset" : 19236,
            "target" : 34962
        },
        {
            "buffer" : 0,
            "byteLength" : 2680,
            "byteOffset" : 23256,
            "target" : 34962
        },
        {
            "buffer" : 0,
            "byteLength" : 2280,
            "byteOffset" : 25936,
            "target" : 34963
        },
        {
            "buffer" : 0,
            "byteLength" : 3984,
            "byteOffset" : 28216,
            "target" : 34962
        },
        {
            "buffer" : 0,
            "byteLength" : 3984,
            "byteOffset" : 32200,
            "target" : 34962
        },
        {
            "buffer" : 0,
            "byteLength" : 2656,
            "byteOffset" : 36184,
            "target" : 34962
        }
    ],
    "buffers" : [
        {
            "byteLength" : 38840,
            "uri" : "obj.bin"
        }
    ],
    "images" : [
        {
            "name" : "wood",
            "uri" : "wood.png"
        }
    ],
    "materials" : [
        {
            "name" : "wood",
            "pbrMetallicRoughness" : {
                "baseColorFactor" : [
                    0.6400000190734865,
                    0.6400000190734865,
                    0.6400000190734865,
                    1.0
                ],
                "baseColorTexture" : {
                    "index" : 0
                },
                "metallicFactor" : 0.0
            }
        }
    ],
    "meshes" : [
        {
            "name" : "Cylinder.559",
            "primitives" : [
                {
                    "attributes" : {
                        "NORMAL" : 2,
                        "POSITION" : 1,
                        "TEXCOORD_0" : 3
                    },
                    "indices" : 0,
                    "material" : 0
                }
            ]
        },
        {
            "name" : "Cylinder.561",
            "primitives" : [
                {
                    "attributes" : {
                        "NORMAL" : 6,
                        "POSITION" : 5,
                        "TEXCOORD_0" : 7
                    },
                    "indices" : 4,
                    "material" : 0
                }
            ]
        },
        {
            "name" : "Cylinder.562",
            "primitives" : [
                {
                    "attributes" : {
                        "NORMAL" : 10,
                        "POSITION" : 9,
                        "TEXCOORD_0" : 11
                    },
                    "indices" : 8,
                    "material" : 0
                }
            ]
        }
    ],
    "nodes" : [
        {
            "mesh" : 0,
            "name" : "Cylinder.548",
            "scale" : [
                0.0431365929543972,
                0.3682287931442261,
                0.0431365929543972
            ],
            "translation" : [
                0.0,
                0.2472119927406311,
                -0.0
            ]
        },
        {
            "mesh" : 1,
            "name" : "Cylinder.549",
            "scale" : [
                0.08971761167049408,
                0.11276265978813171,
                0.08971761167049408
            ],
            "translation" : [
                0.0,
                0.5132196545600891,
                -0.0
            ]
        },
        {
            "mesh" : 2,
            "name" : "Cylinder.550",
            "rotation" : [
                0.0,
                0.0,
                -0.7071068286895752,
                0.7071068286895752
            ],
            "scale" : [
                0.02244681492447853,
                0.19161373376846313,
                0.02244681492447853
            ],
            "translation" : [
                0.0,
                0.2757512032985687,
                -0.0
            ]
        }
    ],
    "samplers" : [
        {}
    ],
    "scene" : 2,
    "scenes" : [
        {
            "name" : "cetak"
        },
        {
            "name" : "garden"
        },
        {
            "name" : "general",
            "nodes" : [
                2,
                1,
                0
            ]
        },
        {
            "name" : "hair"
        },
        {
            "name" : "houses"
        },
        {
            "name" : "map"
        },
        {
            "name" : "nature"
        },
        {
            "name" : "Rocks"
        },
        {
            "name" : "Scene"
        },
        {
            "name" : "tent"
        },
        {
            "name" : "tree"
        },
        {
            "name" : "wall"
        },
        {
            "name" : "well"
        }
    ],
    "textures" : [
        {
            "sampler" : 0,
            "source" : 0
        }
    ]
}
