{
    "accessors" : [
        {
            "bufferView" : 0,
            "componentType" : 5123,
            "count" : 3390,
            "max" : [
                740
            ],
            "min" : [
                0
            ],
            "type" : "SCALAR"
        },
        {
            "bufferView" : 1,
            "componentType" : 5126,
            "count" : 741,
            "max" : [
                0.9865047931671143,
                1.0,
                1.1520439386367798
            ],
            "min" : [
                -0.9865046739578247,
                -2.0792036056518555,
                -0.9865047931671143
            ],
            "type" : "VEC3"
        },
        {
            "bufferView" : 2,
            "componentType" : 5126,
            "count" : 741,
            "max" : [
                1.0,
                1.0,
                0.9404584169387817
            ],
            "min" : [
                -1.0,
                -0.999969482421875,
                -1.0
            ],
            "type" : "VEC3"
        },
        {
            "bufferView" : 3,
            "componentType" : 5126,
            "count" : 741,
            "max" : [
                1.0,
                1.0,
                0.9864228963851929,
                1.0
            ],
            "min" : [
                -0.9814516305923462,
                -1.0,
                -0.9999144673347473,
                -1.0
            ],
            "type" : "VEC4"
        },
        {
            "bufferView" : 4,
            "componentType" : 5126,
            "count" : 741,
            "max" : [
                1.0,
                1.0
            ],
            "min" : [
                0.0,
                0.0
            ],
            "type" : "VEC2"
        }
    ],
    "asset" : {
        "generator" : "Khronos Blender glTF 2.0 exporter",
        "version" : "2.0"
    },
    "bufferViews" : [
        {
            "buffer" : 0,
            "byteLength" : 6780,
            "byteOffset" : 0,
            "target" : 34963
        },
        {
            "buffer" : 0,
            "byteLength" : 8892,
            "byteOffset" : 6780,
            "target" : 34962
        },
        {
            "buffer" : 0,
            "byteLength" : 8892,
            "byteOffset" : 15672,
            "target" : 34962
        },
        {
            "buffer" : 0,
            "byteLength" : 11856,
            "byteOffset" : 24564,
            "target" : 34962
        },
        {
            "buffer" : 0,
            "byteLength" : 5928,
            "byteOffset" : 36420,
            "target" : 34962
        }
    ],
    "buffers" : [
        {
            "byteLength" : 42348,
            "uri" : "obj.bin"
        }
    ],
    "images" : [
        {
            "name" : "ornament_1",
            "uri" : "ornament_1.png"
        }
    ],
    "materials" : [
        {
            "name" : "ornament_1",
            "pbrMetallicRoughness" : {
                "baseColorFactor" : [
                    0.800000011920929,
                    0.800000011920929,
                    0.800000011920929,
                    1.0
                ],
                "baseColorTexture" : {
                    "index" : 0
                },
                "metallicFactor" : 0.0
            }
        }
    ],
    "meshes" : [
        {
            "name" : "Sphere.091",
            "primitives" : [
                {
                    "attributes" : {
                        "NORMAL" : 2,
                        "POSITION" : 1,
                        "TANGENT" : 3,
                        "TEXCOORD_0" : 4
                    },
                    "indices" : 0,
                    "material" : 0
                }
            ]
        }
    ],
    "nodes" : [
        {
            "mesh" : 0,
            "name" : "Sphere.011",
            "scale" : [
                0.11807434260845184,
                0.11807434260845184,
                0.11807434260845184
            ],
            "translation" : [
                -0.0021246373653411865,
                0.09770485758781433,
                0.0057739317417144775
            ]
        }
    ],
    "samplers" : [
        {}
    ],
    "scene" : 0,
    "scenes" : [
        {
            "name" : "HEA",
            "nodes" : [
                0
            ]
        },
        {
            "name" : "Scene"
        },
        {
            "name" : "TOB"
        },
        {
            "name" : "TOC"
        },
        {
            "name" : "TOD"
        }
    ],
    "textures" : [
        {
            "sampler" : 0,
            "source" : 0
        }
    ]
}
