{
    "accessors" : [
        {
            "bufferView" : 0,
            "componentType" : 5123,
            "count" : 2400,
            "max" : [
                566
            ],
            "min" : [
                0
            ],
            "type" : "SCALAR"
        },
        {
            "bufferView" : 1,
            "componentType" : 5126,
            "count" : 567,
            "max" : [
                0.8390769958496094,
                0.9080111980438232,
                0.8390767574310303
            ],
            "min" : [
                -0.8390764594078064,
                -0.8812451958656311,
                -0.8390758037567139
            ],
            "type" : "VEC3"
        },
        {
            "bufferView" : 2,
            "componentType" : 5126,
            "count" : 567,
            "max" : [
                0.9971923232078552,
                1.0,
                0.9971923232078552
            ],
            "min" : [
                -0.9971923232078552,
                -0.42609941959381104,
                -0.9971923232078552
            ],
            "type" : "VEC3"
        },
        {
            "bufferView" : 3,
            "componentType" : 5126,
            "count" : 567,
            "max" : [
                0.9996994137763977,
                0.9457592368125916,
                0.9996148347854614,
                1.0
            ],
            "min" : [
                -0.9987015128135681,
                -0.9457592368125916,
                -0.9991745352745056,
                1.0
            ],
            "type" : "VEC4"
        },
        {
            "bufferView" : 4,
            "componentType" : 5126,
            "count" : 567,
            "max" : [
                1.9722628593444824,
                1.972262978553772
            ],
            "min" : [
                -0.9722628593444824,
                -0.972262978553772
            ],
            "type" : "VEC2"
        },
        {
            "bufferView" : 5,
            "componentType" : 5123,
            "count" : 384,
            "max" : [
                109
            ],
            "min" : [
                0
            ],
            "type" : "SCALAR"
        },
        {
            "bufferView" : 6,
            "componentType" : 5126,
            "count" : 110,
            "max" : [
                0.5197314620018005,
                0.223483145236969,
                0.5197315812110901
            ],
            "min" : [
                -0.5197312235832214,
                0.013533448800444603,
                -0.5197314023971558
            ],
            "type" : "VEC3"
        },
        {
            "bufferView" : 7,
            "componentType" : 5126,
            "count" : 110,
            "max" : [
                0.9984740614891052,
                0.27552109956741333,
                0.9984740614891052
            ],
            "min" : [
                -0.9984740614891052,
                -0.32139042019844055,
                -0.9984740614891052
            ],
            "type" : "VEC3"
        },
        {
            "bufferView" : 8,
            "componentType" : 5126,
            "count" : 110,
            "max" : [
                0.9978924989700317,
                0.17718778550624847,
                0.9972200393676758,
                1.0
            ],
            "min" : [
                -0.9907993078231812,
                -0.1771833300590515,
                -0.9941229224205017,
                1.0
            ],
            "type" : "VEC4"
        },
        {
            "bufferView" : 9,
            "componentType" : 5126,
            "count" : 110,
            "max" : [
                1.8290003538131714,
                1.0942241549491882
            ],
            "min" : [
                -0.7613338232040405,
                -0.555540919303894
            ],
            "type" : "VEC2"
        }
    ],
    "asset" : {
        "generator" : "Khronos Blender glTF 2.0 exporter",
        "version" : "2.0"
    },
    "bufferViews" : [
        {
            "buffer" : 0,
            "byteLength" : 4800,
            "byteOffset" : 0,
            "target" : 34963
        },
        {
            "buffer" : 0,
            "byteLength" : 6804,
            "byteOffset" : 4800,
            "target" : 34962
        },
        {
            "buffer" : 0,
            "byteLength" : 6804,
            "byteOffset" : 11604,
            "target" : 34962
        },
        {
            "buffer" : 0,
            "byteLength" : 9072,
            "byteOffset" : 18408,
            "target" : 34962
        },
        {
            "buffer" : 0,
            "byteLength" : 4536,
            "byteOffset" : 27480,
            "target" : 34962
        },
        {
            "buffer" : 0,
            "byteLength" : 768,
            "byteOffset" : 32016,
            "target" : 34963
        },
        {
            "buffer" : 0,
            "byteLength" : 1320,
            "byteOffset" : 32784,
            "target" : 34962
        },
        {
            "buffer" : 0,
            "byteLength" : 1320,
            "byteOffset" : 34104,
            "target" : 34962
        },
        {
            "buffer" : 0,
            "byteLength" : 1760,
            "byteOffset" : 35424,
            "target" : 34962
        },
        {
            "buffer" : 0,
            "byteLength" : 880,
            "byteOffset" : 37184,
            "target" : 34962
        }
    ],
    "buffers" : [
        {
            "byteLength" : 38064,
            "uri" : "body.bin"
        }
    ],
    "images" : [
        {
            "name" : "ornament_1",
            "uri" : "ornament_1.png"
        },
        {
            "name" : "ornament_2",
            "uri" : "ornament_2.png"
        }
    ],
    "materials" : [
        {
            "name" : "ornament_1",
            "pbrMetallicRoughness" : {
                "baseColorFactor" : [
                    0.6400000190734865,
                    0.6400000190734865,
                    0.6400000190734865,
                    1.0
                ],
                "baseColorTexture" : {
                    "index" : 0
                },
                "metallicFactor" : 0.0
            }
        },
        {
            "name" : "ornament_2",
            "pbrMetallicRoughness" : {
                "baseColorFactor" : [
                    0.6400000190734865,
                    0.6400000190734865,
                    0.6400000190734865,
                    1.0
                ],
                "baseColorTexture" : {
                    "index" : 1
                },
                "metallicFactor" : 0.0
            }
        }
    ],
    "meshes" : [
        {
            "name" : "Sphere.045",
            "primitives" : [
                {
                    "attributes" : {
                        "NORMAL" : 2,
                        "POSITION" : 1,
                        "TANGENT" : 3,
                        "TEXCOORD_0" : 4
                    },
                    "indices" : 0,
                    "material" : 0
                },
                {
                    "attributes" : {
                        "NORMAL" : 7,
                        "POSITION" : 6,
                        "TANGENT" : 8,
                        "TEXCOORD_0" : 9
                    },
                    "indices" : 5,
                    "material" : 1
                }
            ]
        }
    ],
    "nodes" : [
        {
            "mesh" : 0,
            "name" : "Sphere.061",
            "scale" : [
                0.22015132009983063,
                0.22015132009983063,
                0.22015132009983063
            ],
            "translation" : [
                0.0,
                0.08623433858156204,
                -0.0
            ]
        }
    ],
    "samplers" : [
        {}
    ],
    "scene" : 3,
    "scenes" : [
        {
            "name" : "new"
        },
        {
            "name" : "Scene"
        },
        {
            "name" : "Scene.001"
        },
        {
            "name" : "SU04",
            "nodes" : [
                0
            ]
        },
        {
            "name" : "SU05"
        },
        {
            "name" : "SU06"
        },
        {
            "name" : "SU07"
        },
        {
            "name" : "SU08"
        },
        {
            "name" : "SU09"
        },
        {
            "name" : "SU10"
        }
    ],
    "textures" : [
        {
            "sampler" : 0,
            "source" : 0
        },
        {
            "sampler" : 0,
            "source" : 1
        }
    ]
}
